<mxfile host="65bd71144e">
    <diagram id="oHL8ADMdOpTDqOdZY7cR" name="Page-1">
        <mxGraphModel dx="1726" dy="1052" grid="1" gridSize="10" guides="1" tooltips="1" connect="1" arrows="1" fold="1" page="1" pageScale="1" pageWidth="850" pageHeight="1100" math="0" shadow="0">
            <root>
                <mxCell id="0"/>
                <mxCell id="1" parent="0"/>
                <mxCell id="2" value="http://ics2o.mths.ca" style="swimlane;whiteSpace=wrap;html=1;" vertex="1" parent="1">
                    <mxGeometry x="10" y="50" width="820" height="450" as="geometry"/>
                </mxCell>
                <mxCell id="3" value="&lt;h1 style=&quot;margin-top: 0px; line-height: 270%;&quot;&gt;&lt;font style=&quot;font-size: 30px;&quot;&gt;geometric sequence with while loops, with JS&lt;/font&gt;&lt;/h1&gt;" style="text;html=1;whiteSpace=wrap;overflow=hidden;rounded=0;" vertex="1" parent="2">
                    <mxGeometry x="20" y="20" width="730" height="70" as="geometry"/>
                </mxCell>
                <mxCell id="4" value="&lt;font style=&quot;font-size: 26px;&quot;&gt;Enter number to multiply with the second number:&lt;/font&gt;" style="text;html=1;align=left;verticalAlign=middle;whiteSpace=wrap;rounded=0;" vertex="1" parent="2">
                    <mxGeometry x="20" y="100" width="450" height="30" as="geometry"/>
                </mxCell>
                <mxCell id="5" value="Number..." style="rounded=1;whiteSpace=wrap;html=1;align=left;fillColor=light-dark(#FFFFFF,#000000);strokeColor=light-dark(#000000,#FFFFFF);" vertex="1" parent="2">
                    <mxGeometry x="20" y="160" width="280" height="30" as="geometry"/>
                </mxCell>
                <mxCell id="6" value="&lt;font style=&quot;font-size: 17px;&quot;&gt;Calculate&lt;/font&gt;" style="rounded=1;whiteSpace=wrap;html=1;align=center;fillColor=light-dark(#FFFFFF,#000000);strokeColor=light-dark(#000000,#FFFFFF);" vertex="1" parent="2">
                    <mxGeometry x="20" y="322.13" width="200" height="30" as="geometry"/>
                </mxCell>
                <mxCell id="7" value="&lt;span style=&quot;font-size: 26px;&quot;&gt;Your geometric sequence is: 2, 4, 8, 16, 32&lt;/span&gt;" style="text;html=1;align=left;verticalAlign=middle;whiteSpace=wrap;rounded=0;" vertex="1" parent="2">
                    <mxGeometry x="20" y="360" width="530" height="30" as="geometry"/>
                </mxCell>
                <mxCell id="8" value="&lt;span style=&quot;color: rgb(63, 63, 63); font-size: 26px;&quot;&gt;Enter number to repeatedly multiply with the first number:&lt;/span&gt;" style="text;html=1;align=left;verticalAlign=middle;whiteSpace=wrap;rounded=0;" vertex="1" parent="2">
                    <mxGeometry x="20" y="212.13" width="380" height="30" as="geometry"/>
                </mxCell>
                <mxCell id="9" value="Number..." style="rounded=1;whiteSpace=wrap;html=1;align=left;fillColor=light-dark(#FFFFFF,#000000);strokeColor=light-dark(#000000,#FFFFFF);" vertex="1" parent="2">
                    <mxGeometry x="20" y="262.13" width="280" height="30" as="geometry"/>
                </mxCell>
                <mxCell id="20" value="" style="shape=image;verticalLabelPosition=bottom;labelBackgroundColor=default;verticalAlign=top;aspect=fixed;imageAspect=0;image=data:image/png,iVBORw0KGgoAAAANSUhEUgAABLAAAAKjCAIAAACC0WGXAACAAElEQVR42uzddXhTZ8MG8CD1xl2qFHcZLmMDBmy4a4EyGEOH69iA2Tu8Bi3urkPHhstguAzXpN7mRJrGz/vHYV1pk9ACbdOe+3ed67vefVvS5HnOc3Lu8xiDBAAAAAAAAFpioAgAAAAAAADoCYEQAAAAAACAphAIAQAAAAAAaAqBEAAAAAAAgKYQCAEAAAAAAGgKgRAAAAAAAICmEAgBAAAAAABoCoEQAAAAAACAphAIAQAAAAAAaAqBEAAAAAAAgKYQCAEAAAAAAGgKgRAAAAAAAICmEAgBAAAAAABoCoEQAAAAAACAphAIAQAAAAAAaAqBEAAAAAAAgKYQCAEAAAAAAGgKgRAAAAAAAICmEAgBAAAAAABoCoEQAAAAAACAphAIAQAAAAAAaAqBEAAAAAAAgKYQCAEAAAAAAGgKgRAAAAAAAICmEAgBAAAAAABoCoEQAAAAAACAphAIAQAAAAAAaAqBEAAAAAAAgKYQCAEAAAAAAGgKgRAAAAAAAICmEAgBAAAAAABoCoEQAAAAAACAphAIAQAAAAAAaAqBEAAAAAAAgKYQCAEAAAAAAGgKgRAAAAAAAICmEAgBAAAAAABoCoEQAAAAAACAphAIAQAAAAAAaAqBEAAAAAAAgKYQCAEAAAAAAGgKgRAAAAAAAICmEAgBAAAAAABoCoEQAAAAAACAphAIAQAAAAAAaAqBEAAAAAAAgKYQCAEAAAAAAGgKgRAAAAAAAICmEAgBAAAAAABoCoEQAAAAAACAphAIAQAAAAAAaAqBEAAAAAAAgKYQCAEAAAAAAGgKgRAAAAAAAICmEAgBAAAAAABoCoEQAAAAAACAphAIAQAAAAAAaAqBEAAAAAAAgKYQCAEAAAAAAGgKgRAAAAAAAICmEAgBAAAAAABoCoEQAAAAAACAphAIAQAAAAAAaAqBEAAAAAAAgKYQCAEAAAAAAGgKgRAAAAAAAICmEAgBAAAAAABoCoEQAAAAAACAphAIAQAAAAAAaAqBEAAAAAAAgKYQCAEAAAAAAGgKgRAAAAAAAICmEAgBAAAAAABoCoEQAAAAAACAphAIAQAAAAAAaAqBEAAAAAAAgKYQCAEAAAAAAGgKgRAAAAAAAICmEAgBAAAAAABoCoEQAAAAAACAphAIAQAAAAAAaAqBEAAAAAAAgKYQCAEAAAAAAGgKgRAAAAAAAICmEAgBAAAAAABoCoEQAAAAAACAphAIAQAAAAAAaAqBEAAAAAAAgKYQCAEAAAAAAGgKgRAAAAAAAICmEAgBAAAAAABoCoEQAAAAAACAphAIAQAAAAAAaAqBEAAAAAAAgKYQCAEAAAAAAGgKgRAAAAAAAICmEAgBAAAAAABoCoEQAAAAAACAphAIAQAAAAAAaAqBEAAAAAAAgKYQCAEAAAAAAGgKgRAAAAAAAICmEAgBAAAAAABoCoEQAAAAAACAphAIAQAAAAAAaAqBEAAAAAAAgKYQCAEAAAAAAGgKgRAAAAAAAICmEAgBAAAAAABoCoEQAAAAAACAphAIAQAAAAAAaAqBEAAAAAAAgKYQCAEAAAAAAGgKgRAAAAAAAICmEAgBAAAAAABoCoEQAAAAAACAphAIAQAAAAAAaAqBEAAAAAAAgKYQCAEAAAAAAGgKgRAAAAAAAICmEAgBAAAAAABoCoEQAAAAAACAphAIAQAAAAAAaAqBEAAAAAAAgKYQCAEAAAAAAGgKgRAAAAAAAICmEAgBAAAAAABoCoEQAAAAAACAphAIAQAAAAAAaAqBEAAAAAAAgKYQCAEAAAAAAGgKgRAAAAAAAICmEAgBAAAAAABoCoEQAAAAAACAphAIAQAAAAAAaAqBEAAAAAAAgKYQCAEAAAAAAGgKgRAAAAAAAICmEAgBAAAAAABoCoEQAAAAAACAphAIAQAAAAAAaAqBEAAAAAAAgKYQCAEAAAAAAGgKgRAAAAAAAICmEAgBAAAAAABoCoEQAAAAAACAphAIAQAAAAAAaAqBEAAAAAAAgKYQCAEAAAAAAGgKgRAAAAAAAICmEAgBAAAAAABoCoEQAAAAAACAphAIAQAAAAAAaAqBEAAAAAAAgKYQCAEAAAAAAGgKgRAAAAAAAICmEAgBAAAAAABoCoEQAAAAAACAphAIAQAAAAAAaAqBEAAAAAAAgKYQCAEAAAAAAGgKgRAAAAAAAICmEAgBAAAAAABoCoEQAAAAAACAphAIAQAAAAAAaAqBEAAAAAAAgKYQCAEAAAAAAGgKgRAAAAAAAICmEAgBAAAAAABoCoEQAAAAAACAphAIAQAAAAAAaAqBEAAAAAAAgKYQCAEAAAAAAGgKgRAAAAAAAICmEAgBAAAAAABoCoEQAAAAAACAphAIAQAAAAAAaAqBEAAAAAAAgKYQCAEAAAAAAGgKgRAAAAAAAICmEAgBAAAAAABoCoEQoCSx2+0oBAAAAAD4UBAIgUaSk5MnT5w0Y9r0ObNml6Rj5qwpkybHREbduX27BJV2UmLi9q1bp02eMnvGzJJV4LNnzBw3esy5M2dL+gl/4/r18WPGzipx5T9z1tRJk9evXfv0yZNSf1HKMhiOHz367ew5M6ZNK3HVNGHsuNXxq/DL8j4ePXw4Ydz4WdNnlLjanzJp8ur4+EcPH6ISAUoBBEKgkUcPH8rFktDAoCphFatUrFRSjsoVwuRiSbfOnY8dPVqCSvv+/fsTxo4LlCkqhVYoSQUeVqlSaAWOHzNuxcqSfsIf2L+fx2RXDAktWeVfuUKYQiIdPnTYX5f+KvUXJQ1BLPzlf9UrVwkJKHnXJT6bM3jAQPyyvI+zZ84IONyw4JAS10jlYumg/gNKwYMzACARCIFWHj546OPhyWOxZUKRTCQuKYdUKPLz8m7T+pMD+w+UoNL+5969ERHDWb5+Yr6gBJW2TCQW8wUMBiNqeWRJP+H37d3LYDBEPH7JKn+JQOjv5d2vd5/Lf9EgEGo0C+bNl4slPBa7ZFWTVCAsy2B079IFvyzv49TJk2UZDCGXV+IaqZ+Xd7fOXc6cPoNKBCgFEAiBRp48fsz285eJxBWCgkvWwWOxO37W/ujhIyWotB/cfzD6q1FCLi9QJi9ZpR0kU5RnlImOjCrpJ/xvBw56li0XKJWVuBOe6nr6+8rfpf6ipNVqf/np59DAoJJ4XfIp79mnZ0/8sryPs2fOeJf3CCiBjZTHYvfu0fP8uXOoRIBSAIEQaOTJ48ccf6a8BN548dmcEhkIR30t4vJC5YoSFgjlCg9G2dIQCA8e9CpbrsQFcloFQl1JDoS+Hp59evbCL8v7OHvmrE95z5IYCPlsTp+evc6fO49KBCgFEAiBRhAIi1KOQBiEQFgsEAjdHwIhzSEQAoA7QCAEGkEgLEroISx2CITuD4GQ5hAIAcAdIBACjSAQFiUEwmKHQOj+EAhpDoEQANwBAiHQCAJhUUIgLHYIhO4PgZDmEAgBwB0gEAKNIBAWJQTCYodA6P4QCGkOgRAA3AECIdAIAmFRQiAsdgiE7g+BkOYQCAHAHSAQAo0gEBYlBMJih0Do/hAIaQ6BEADcAQIh0AgCYVFCICx2CITuD4GQ5hAIAcAdIBACjSAQFiUEwmKHQOj+EAhpDoEQANwBAiHQSDEGwtDAoFwHAmGRFXVBCxyBsDCqAIHQoWIMhO9ZRwiEH0QxBsL3b6QIhAClBgIh0EhxBcJAmTxAKlNIpHKxRCGWBEikAVJZUEFiEgJh/m9xguQKqrRfF7hEGiCVBcrk+b/dQSB8zyp444T/t/wLesIjEBZuN/i/dZSrmhAIi1ixBELqIpm3kRYoEyIQApQmCIRAI0UcCBUSqZDLY/r4epQpGyCVNaxXv0WTps0aN6lXq7aAzfHx8OSzOQqJND+/wQiE+UndYr6A7efv6+HJ8WfWqla9ZbPmLZo0bdqwkUQg9Pf24fgzpUJRfkobgfDdDrlYwmdz/L28PcuWCwsOadzgoxZNmzVt1LhW9RosXz8/L28hlxcgleXzhEcgLJRmIpVRzcS7XHkRl1eravUWTZs1b9y0ZbPmYr7Aq2w5LpMly18zQSD8IIoyEAbJFVKhiMtk+Xl6eTDK1KhStVXzFi2aNG3SsFFYUDDL14/p4yvmC/KZDBEIAUoTBEKgkaIMhFx/llQo6tSh45xZs9etXXv40KHTp06dO3vu3NmzJ/88uXP7jp9++KF3jx4KsVQqEL618wSB0HWXlIQvEHC4jeo3mDppctTy5Tu2b//zjz/Onzt/7uy5s2fOHti/f0VM7FdfjqhToybHz/+t914IhO9wo8ny8Q0NDOrdo+eC7+dt3rTp2NGjZ06fpsr/jxMnNm/a9P3cuR3atZMIhPmJ5QiEhXEIuTwxX9C0YaMpEyfFREfv2bXrjxMnzp87d+7s2Qvnz/928ODypcuGhofXqFpNxOMrJFIEwiJQNIEwNDBILpbwmKyaVauNiBj+y08/b9qw8Y8TJy6cP3/u7NmzZ84cPXxk7erVUydNbtGkmYDDzc+TSgRCgNIEgRBopMgCoZgvaNm02fdz5544/rtarXb4Yex2+4Vz52ZOn165QphMJHb964tA6OJGJ0Aqq129ZsSQoTu2bUtKTHT2eR4/erR08ZJPWrZ6680uAuE7BPLP23f49edfLpw/bzAYHH4Yg8Fw9MiRr74cESRXyMWSt57wCIQf9pCJxA3q1P165Ffbt25TqZTOPs+d27eXLl7ctGEjaiQhAmFhK4JASA2kDwsO6dOzZ/zKuHt379ntdocfJikxacumzX179ZYIhIp8NFIEQoBSA4EQaOQdAqHrCffO/q2fp1fU8uX5+Uh2u33KpEmVK4RJBEIXv740CYRvXd4gNDAoJCAw539A3UlHDBn69MnT/Hyqw7/9VrdWbZlI7KJXls6BMG8Jv7WCguQKtp//HydO5OcjpaSkDAsf8tZMiED4ns0k73/AZbLGjR6dkpycn08Vv2Jlo/oNXF+UEAg/iIIGQqpaqUaaz9qnpvU2bdT4ypUr+flId+/cafvJJ9T8UgRCAJpAIAQaKWggpHqfqF/TvNMqqMeugTJ5sCIgSK7I+W+9ypaLX7ky/x9sUP8BIh7fxY07HQJhzvJ0OImFqgiqUrILPDQwSCIQThw/4eWLl/n8YKvi4mtXryHmCxAIHZSwNHcJv7WCAmVyPy/vixcu5PNT6XS6j5u3kLgcKY1AmJ9mEiRX5C1DqvpCAgJzXbWYPr7Tp07V6XT5/GA/LviheuUqUqEIgbBQFSgQZi+alX0xdHiRpFpozotkgETaukXLG9ev5/NTXb92rX6dugIO1/VTGwRCgFIDgRBopKCBUMwXSIWiGVOnt2zaLO84Q2pIVdNGjYcODq9bs5aAw/0vEJYrv2b1auqP3rl9e+P6DbNmzBw1YuSEceMX/vK/69eu5RqxEx8X16RhIzFPQOdASPXatWrWfOjg8CphFUU8fq6QxmOxq1euMmfmrGqVqoj5AuoWKkiukAiEk76ZmJKcQpKkVqM5/NtvC+bNmzB23FcjRs6cNv3Qwd/MZnPOD6bX61s1b8Hy9UMgzPWt+WxOlbCKc2bNrlm1WnYJZx9SoShYEdC6ZauhgwaHBYdkJ+pAmdzfy/vvfzsfrly+vDp+1dRJk0eNGDlpwjcxkVEPHjzI9cF++uHHmtWqSwVCBMKCBsIAqUwmFH9Ur374wEEtmjTlszi5MqFEIBTx+FMnT/m01cc5r1pMH98Z06ZZrVaSJAm1+vChQ9/N+XbUiJHjxoz9dtbsg/v3G7Oycn6wa1ev9ureg+vPRCAsVAUKhAFSmZgvqFm12pxZsyuHVeSzc9e+kMurXrnK0MHhLZo2C5TJqR+70MAghUT6SauP7929R5KkzWY7ffJk1OIlk7+ZOGrEyCmTJm9cv0FDELk+WP++/aiVSBEIAegAgRBopECBkM/mhAWHfPftt0mJSefOnO3VvQfL1y97qr1MJBbzBJ9+3Prc2bNJSUnz5n5XrVJlIZdH/Vumt+/SxUuePX06dfLkLzp0aPJRw2qVKocGBlUMCa1VrfrHLVqcO3Mm5we7f//+4AEDOc7vvUp9IFRIpFKhqEfXblf//lulVE2dNLlCULCAzcnOKkxv3/q166yMjc1Iz9i3d2+LJk15LDb1CFwuEs+YNv3A/v2x0TE9u3X/uHmLmlWrVQwJDQ0MqhRa4dNWH0cvj8w1k/Prr0YFKwKc3evQMxBy/Jn1ateOiYpKT08/uH9/q2bN2X7+VF9EaGCQVCgS8wUD+va7eePmq5cvR4/8inpiQhUXl8k6fOjQ31eujBn19Wdt2jSs16ByhbDQwOBKoRVqV6/xRYeOT588yfnB/rp0qU3r1nwWG4GwQIEwUCaXicQf1a1/5PDhlOSUFTGxtavX5LHY2VVM/e/ZM2eqlKpLFy8O6t+f68+kKpHLZE2fMvXsmTOLfv21b6/erZq3qF65CnVRqlqxUpOPGm5cvz5X/+GsGTN8PDwRCAtV/gNhkFzBY7Jat2h58MCB9PT06MjIOjVqMn18szMh9Zs1Y+q0hISEy5cvd/mik1Qoon6zAmXyLl902rVz557du4cODm/zcet6tWpXrhAWGhhUMbRCo/oNRn05IiUlJecHi1y2/KN69SUun9ogEAKUGgiEQCP5D4QKibR29RrTpkxRZ2RQrz35xx/dOncRsDnUxk0SgbB923YH9h+g/m1KcvKCefOrVapCRRQxX9ClS6eIoUPFPD7L10/A5kgEQplILBWK+GwOg8GYO3tOampq9gdTqzPGjxnL9PalYSCk8oZMKBrUf8Dly5f/fe39b8aNCwsOkfAFAVIZj8lqUKfu8iVLMzMzqf9g5/bt7T75VMwXhAYGBUplnT//omfXbrWr1/Ap78FjscV8gUwklonEQi6P7edfq1r127du5/xs87//vnqVqnKxBIHw9QkvljSq32DZkiVmk4l67bYtWz5p2YrHYgdIZXKxRCoUDejb78K/40IfP3o89uvRlUIrUOPWpEJRxJChPbt147HYLF8/IZcnFYqoE57t5+9VrvyquHi9Xp/9wV69evlFhw4cP38EwvwHQurZR8tmzffu2UO9Nj09fcmixbWr15AKRAqJlM/mVAwJnTh+gkr5es2YK5cvDx4wUCYSh8qDpEJR+zZtBw8YULViJaa3L5fJoi5KMpFYxOV7lSvf9YtOF86/cXP/w/wFnmXLIRAWqvwHQjFf0KFtu727d1Mv1Ot0ixcurFerNo/JCpDKJHxBxZDQyRMnPn70iPoPLl642L9PH2pR32BFQNNGjXt2696qWXOWrx/Hnyni8alGKuYLOH7+PCb7zxN/5Pxge/fs/bhFSyGXh0AIQAcIhEAj+Q+EUqGo7Sef7ty+I+fLz5w+3bxxEx6L7e/t07JZ8927duX8t8ePHWvc4KPsaRtSoYgar5VrDkagTM7y9RvQt9+lixezX5uUlDTyyy+ZPvQNhFKh6Kcffsz58vv373898is+m0N1eixZtEifo/tCqXw1+qtR1DBd6mZawhc6DHhivqAsg3H+3Lmcbz5z2vQqYRURCP8brysUde/S9ezpNzqut2zeXKdGTbafP8ef2bnj5xdznLEkScatWFG7Rs3A7IG7fAE1yjTXCU9tTjh+7Nicq/48fvSoQ7t2rrvEEQjzthSpUNS3V++sHGM7tVrt/376OUiu4Pj5i3j8r74c8erVf5NpjUZj5LJl2fsKUnf/crEk1zjD0MAgIZdXs2q1Hdu35/xsC+bNQyAsbPkPhAIOd8LYcYkJCf/Vvkbz6y+/KCQyHpMl4HDHjR6TnQYp38+dKxUIqWusQiKlNn3JO/lQKhT5enqtWb3aYMjMfu22rVtbNG2GQAhAEwiEQCP5D4TUzLTP23d4cP9+9sttNtvePXuoe981q1bnfOebN24MCw/nMlkV8izFkevGSyGRcvyY48eOfZhjYtXDhw/CBw5iu+wwKd1DRsU8QZOPGsateGMlnhvXrzdp2EjE448bM/bly/9ucy0Wy4xp08KCQ50lupzxW8wXBMkV165ezfnOo0d9HRIQiCGjuQpqRMTwnLeber0+JipKwOaEBYec+vPPnO98+uTJjp99xmOyXa9CSWUYEY//0w8/JCUlZb/8yuXLbVp/wsOQ0YIHwqoVK82aPiPL8F8mNBqNPbp1F3J4XTt1PnvmbM43X79uXc1q1V0v6EqNJ+SzOZ9+3ProkTeuMLNnzvQp74FAWKjyHwjlYknFkNA5s2Zbbbbslz99+vTrr0aJePzmTZrevXs35zvHLI1qVL8BNYziLdvGCIR8Nmf/vn0k+d/k9pioaOrlCIQAdIBACDSS/0BIJTe5WPJxi5Z3b9/Jfgej0bhm1aojhw4ROabgX796tWe3biIuz/VmvtRSb2K+oHqVqocPHcr5wfbv29fuk0+FOZaloVsgDJTJJQJhgzp1I5cuy/kmd+/enTvn2wSVKvv/Yzabvx75VcWQUNnb9jcPkiuosYtLFi3KtWRCh7btOH5MZy+nYSCk9q1WSKR9evTMmQmTkpLiVqw4c/p0zoV5/jxxglpmyfVdLDXEUSIQNvmo4a2bt3J+sJWx8R/Vqy9+c90gBML8VJNMJA4LDpk6aXLGv6PZSZJMTk7++cefzp19oxt82dKltWvUpFZzdbFFQZBMLhEIRVxeTFRU5hvDel8NGzLExdpLCIQfRP4DIfVEoFJo2LgxY3NmwpcvXsyd8+39HM8uSZJcumhxvVq1Xa/lm50GZSLxwL79la/e2J3y669GUbMnEAgB6ACBEGikQIvKULezUoGoY7vP/rp0KftNNBqNxWLJ/sdrV69279xFLhK7eJL6eliOQMhjsWtXr3HwwMGc70CS5MTxE4LkCoXz/i46rDKqkEilAlH92nVjoqKNRmP2+2RPiCJJMiMj45tx4yuGhEoFQtc5J0Aq8/f2CVYE/O/nn9NyTNckSfLE7783qFsve8UaBMKct4aBUnn/Pn2eP3uW44QnbDnuPk8cP05tGvHWACPi8fksTuuWrXKNNSVJsme37oFvW8AQgdDZoxOpQFQxJHTW9Bkvnr/Ifp/U1FTTv/M/SZJcunhJgzp1HQ7izdXoeEyWVCiKXLosLS0t5weLX7my8UcfiZyHdgTCD6JAq4xSD84qVQibPHGiVqt1eJE0ZBoily2vW7MWNbPU9btxmSyZSDxk4KDHjx/n/FRJiYmtmjcX8fjYdgKAJhAIgUbeYR9CuVjCZbJ6dO125NChnLfFJEmazeYzp0716dFTzBe4uG2iRmRRCzb279N3/759uT7Vid9PNG/cRMDmYGN6hUQq4vGp1URT31zyjiTJhw8eTJ86jRrN6yLkhAYGiXh8HpPdqlnz2OjoXO+Tnp7es1v3YEWAi1slOu9DSG1a8OWwYX/n2cM6U6/fs2tX+zZtqZtI173rTB/fiqEVRo0YefrUqVzvs2Pb9iphFV2PZEMgdN31LeBwK4VWmD5l6v1/7ud6Q3VGRuTy5bWr18i7U06uibtCDlfE47ds1nxFbGyu9UWVSmWfnr3kIonroIJA+P4KujE9lQmDFYGzZ87MleJIkkxOSopZuqxuzVouaj+7q5njz6xfp8787767eeNGzjexWCzffzuX2sKkAjamB6AHBEKgkYIGQuqHU8wXlGEwxo0erc4xRoskycTExO+//bYsgyFgc13fHEsEwnq1an8zfsKli5dyfaQb1693+aJTkFzhejocTQIhte6FT3mPlk2bnTp5Mtcbrl+3TiIQUsvou+gYpHbi6tmte/ZyfNkSVKrlS5eKeHzX3bm0DYTZ42zLMxhLFy82GAxvVuj9ERERDAbDxWbl1DMUmVDUtGGj7+d+l2sYG0mSvx87/nHzFgqJ1PUdMALhW1OBj4dn1YqV8p6lN27cqFqxMsef6ayaqEdUYp6gasVK/Xr32b5tW653eP78+eyZMyuFVnDdPYhA+EEUNBBSVzmOP1MqFG/bsjXXu534/fdmjRp7l/dw8YMSKldQe4p2aNsubsXKtLQ3BlBkZmbu2L69UkioTCR2PSYfgRCgNEEgBBp5hx7CQJlcxOOHBAT+7+efc66bT5JkRkbGythYamicw5/z1xMRRZIWTZpu2rAh1/boJEmeOnnqiw4dqbW/K7xtU0Q6BEJqkoxMKB4ycNDVv3OHgaNHjrZo2kzMFzibqxkglUkFwqoVK83/ft6rl6/yfJ77s2fOokr7rZMPadtDGCCViXn8ahUrbd282ZxjCCJJkq9evpw3dy61UqXD96TSYKBM3qFtu+PHjuX6MGaLece27a2aNRdyeW+9/UUgfOvIBSGX91mbtnvyPPV4/OhR9y5dA6QyqaNJttQ1TSIQ1qlR8/tv5754/jx3M3nwYOL4CVKB8K1j4BEIP4iCBkKq9iUCYavmLU78/nuud7v8118D+/V3cZWjtrKsEBQcPnBQro5BkiSTk5KWLl5cs2o1ydvG5CMQApQyCIRAIwWdQxgok0sFwkCpbP3adSaTMe8bmkymLZs2Va1Yic/m5Pr5fN1VIhJ/3KLlrVu38r4wctmyapUqy4Qi15N86BMIqfGKAVLZl8Mi8sY5yrWr11o2bSYTifMunBgok/NZ7BpVqu7Yts2SJ3sfPHCwQ7vPhFwe9eAcgdBpGuQLqlWqfOL473a7Pe8bZqSnL128WCYSi3n8vFsXSIWiAKmsR9duycnJuV6oIYiZ06aFBYdI833CIxC6GHQg5HA7dfw873BcSnp6ev8+fannIzmLOjsNVgwJPfTbb7nGwJMkefDAgY+bt3DYvhAIC0mBAmHOn5XbeX5WKM+ePhsWPoTaOzRXJVLD6SuGhE6bPMWQmZnrhTeuXx8+dGiAVCYTiYNcLpeNQAhQ+iAQAo0UKBAGyuRCLi80IGjLpk05fzsvXriQc8kNi9m8cf36BnXqMn18c94iU7/H7T759NbNm7k+xsEDB/r36VspNJTKP/m58aJDIBRyecGKgJHDv8y5pqjBYNi5fUfOztUb169/+nHrXIuaBMkVLB/fhvXqb9640Wq15vwYjx49HDd6dIM6dRUSafaWXG8dNknDQBgglfFY7AZ16h4/ejQ7DRqNxgvnziUmJma/J6FWL1m4qEJgEJfJqvDmVmYykXhQ/wEvXrzI+RnMFsv6teu+6NAxJCBQWpATHoHQ2ZhqMU/QuePnOVe6our6eY7uvoSEhBHDv5SJxJIcmTBQJhdwuDWrVjt44ECuda0uX7o0Yey4erVqU1vV56eOEAg/iAIFQqpCP2vT9vbt29nvkJWVtXPHDmOO/vxXL19GDBlKDW+p8OZOhlXCKs6aPkOXY0EakiQ1BDFv7ncfN28RLFdIhaL8pEEEQoBSBoEQaKRA206IeYL6teusiovLueLl7Vu3Onf8vGfXbufO/rffl8loXLt6datmzfms1wvDUFN0vujQ8cL5N34sNQSxZNHitp98KhWK+GxOPn936RAIZUJR5QphY78e/STHMgkJKtW0yVOaNWqyft36zByZ/OzZs906d8meh0Ztq920YaOYqKicoxzNZvORw4d79+gRKJMLOdy3blpI820nhBxum49b79n1xhDE348fb9O69ZBBg3PWi1qt/t9PP9etWUvA4ebsWhw+dNi9u/dyvvz58+dzZs1u1riJgMN1vWIhAmF+AqFCIg1WBHTr1OXi+Qs532TJ4sUtmzabO+fbV6/+61p/9PDRN+PGB8kV2SGc489sWL/Bti1bcr7Wbrfv37uvV/fuQXKFgM1xvXcOAuEHl/9AGCCVKSTSXt17XLjwX+3rdLo1q1c3bdR45vTpOXvmHz54OGrEyEqhFbLPK7lIXLlC2JxZs3PuCEqS5I3r17/6ckS1SpWFXJ5UICpQI0UgBCg1EAiBRvIfCOViSa3qNeZ/933Olz9//nzs6NH+3j5lGYwREcMfPXyY89+uiIkNCw6hMp6Ix/+obr1c26y/evnyx+++rxgSymdzCrSAROkOhFSXnZgvGBER8fjRf6nDbDJFR0aJeHxfT68mDRsd/u2NnRuPHT36efv2VMYIlMl5LPa8777LuYuaVqvdvnVb+7ZtfT29qL3pC7SwCt0CoVwsaVS/wdrVq3O+/O8rV/r17lOeUcbX02ved9+n5LjdNJvNU6dNDlYEBMrk1NOT1i1aHj96NOfLb9+6NX7M2ACpjM/muF7+HoEwvxvTC4Sftvo459MokiRP/vlntUqVvcqVr1whbOnixTkHgj56+PDLYREyoTg0MEghligk0qmTJud8bUZGRtzKlZ+0bCVgc0R5hgEjEBaB/AdCMY/f+fMv/jhxIufL9+/b16h+A18PT4lAuDp+Vc6O3wf3HwwLH0It5xskV7B9/SKGDL335ub1p0+dGtivH9vPX8TjBxZkYRsEQoBSBoEQaCT/gVAqFLX95NPtW/9bfy8lOfmnBT+IuDypUETt7jVh3PicO3cdPHCwWeMmQXJFkEzO9vWf9M03yTkexKamps6cPr0Mg+Hv5c1nc6iFLrMPiUDo+sF8qQ+EMpF4wbz5OV++fu26Jh81osIz09unf58+F879t+/282fPRn/1lYDDpV5bv3btk3/8kfPlsdEx1SpVLstg8JisvKUtE4ldxCQaBkKZSNyja7c///gz+7VPnzwZ+/VoLpNFnfChgUEL//drznVHY6Ki69WuEyCVUYF8yaJFOp02ZwUN6NOXwWAwfXyp7sGcVfDWsaMIhM62CujTs5dGo8l++flz5zp16CjhC6QCIdPHt3njJju3b8/55suXLqXOdj6b07nj57mWIVmzajWfzfEu78FlskTc3M1ELpaEyoMQCAtV/gOhgMMdP3bsq5cvs1975vTp3j16+Hv7yERiPpvTrHGTLZs25Xzzb2fPoSYEUjv67N65M+e/PfH7759+3JrBYHD8mUIuT8zLUft8gVQocn3pQCAEKE0QCIFGCjRkVMDhNm7w0ZFDh0iSNBmNc+fMEfP4MqEoe/mTILli+LAIs8VCkuSeXbs/adlKxOVRA7QEHO76tety/ukVsbFVK1Zi+viKeHypQCQV/nfIROIgmTxQJndxi0yDIaPiiiGhs2bMpF67Mia2Uf0Ggn+X6lFIpGxf/66dOl25fJkkyZTk5IH9+kv4AoVEGiiTi/mCOTNn5Zx5eP/+/S86dCjPKCPgcCUCYa7SVkikVDU5u92hYSAMkiu4TFbnzz+/fOkSSZKpqanhAwcJuTwqpQTJFWK+ICw4ZP7386h3Xr5kaYO69ag+JYVEKhdLck1pmzl9RrAigOXjK+YLcpa/VCiSi8TZ5e/ihEcgdLicTJBc0aNrt7S0dJIkz5w+/Xn7DkIOl7p0UMm8To2a+/bsIUnSZrX+MH++XCSmln718/L+7ttvc86wPfnnyW6duviU9xA6aiZUBVEHAmHhKcCQUYlUwhcMGxyenpZGkuSlixe/aN+B7edPdb9Tmb/JRw3XrVlLvfOkbyaGBYfIhOJAmVwhlnb5/Ivbt/6beWi1Wgf26+/r6cVjsnPVvlQokoslIQGBAVKZiw+GQAhQmiAQAo0UaFGZAIlUKhQ1qFN304aNX305omJIqCTHkiTUmoqVQisMGzJ06aLFHdp9JhEIAyRS6saubs1avx04mPNPGwyGlJSUtLQ0tVpNvEmr1ZIkuX7tuob1GzjLhKU+EFLlWaNqtdFfjVq6aHGLps2oFXdydmFJhaIO7T7bvnVbly86BSsCqKUvqBGJa1atzrVpXkZ6elJSkjojd2lrNBq9Xn/3zp0BffvxWWwEwrzLIG3fuq17l67BioDsVQpz7lUwdvSYJQsXNar/0ev1QuUKhUTavHGTO3fu5PzTWo02JSUl3dEJr9PqrFbrD/MX1K5ew9lQUgRCF4tMBisC+vftt+jXhf1693ndj/fvRYPa9bROjZrr164b8/XXlSuEUXuLB0rl5RlloiMjc/5pi8WizlAnJyerMzLyNhOLxXLq5KkBffvlWqoUgfDDyn8gpE6SkIDA7l26bt+6rd0nn0rfXFtLIZFK+MLWLVouXbR41MiR1StXoZowtQfJhLHjXjx/veATtWpURkZGUmJSRkYGkbeR6nQkSY6IGM729UMgBKADBEKgkYLuQ0jdXX3cvEXFkFCHS3gHSKRhwSEN6tSlpuxndx4O7Nf/+vXrBfpsBw8caNzgI7mT9f3osMoo1UdaKbTCR3XrBckVijxrwFDL37Vu0TJQJs++CVZIpFwmi+o5zD+tVvvVlyNYPr4IhLkGjgbK5K1btgqSKxxu7BEglVWuEPZR3XqBMjmV5ah+pLGjxySoEgr02ZYvW1a7eg1nKQiB0HU/YYWg4Pq161SuEJZ393lqgZ9WzZpT/5Z6hhUgkVapWOnA/v0F+mz3/7n/1ZcjhFweAmHheYdtJ4LkitYtW2XvKJjrsU6wIuCjuvUqhoQGSGVB/46wkApEa1evzrvVhGuTxo7zKe+BQAhABwiEQCMFDYQ5d1dzeEtEPXylRtfkWJ6UP2Hc+KdPnhbos+3ds+ejevVlNA6EOcvT2Q1ooExOzWzJ/g/kYgnXn/nkyZMCfbbU1NRh4eFMBMJ8lHDehyA5K4gKhPO++16tVhfosy1ZtKhm1WoIhO+2MT31TMRZiggNDJIJRdnTkqkVZVo2bXbq5MkCfbbbt25FDBlKzdRFICwk77AxfXYjdREac/5mKcRSqUB4+NChgn62sV+P9i6HQAhACwiEQCPvEAgLeoQGBkn4gq9HfpW9mJvdpezPtnP7job16jvLQjQJhO9wKCRSPptz7969ApW28tWriCFD2H7+CITveQRIZUFyxbez52TvVeiy/P+rgp9//KlmterO9gJBIPywFyWFRNq0UeNj/y4Dm89mcvXvvyOGDHWxXwgC4fsraCB8t4ukTCTevXOnyWQsUCMdN2aMr6cXAiEAHSAQAo0UTSCUiyW9u/fYuH7D5b/+OnP69OlTp1wfZ06fvn7t2oJ58+vWrEXbOYTvfFBz2zZu2HD92rV8lvb5c+d279rZtVMnIZeHQPj+J3ywIuDLoRH79uz969Klt5b/6VOnzp458/eVK+PGjKleuYqz+2AEwg9bR4EyeYM6dRcvXJT/ZnL5r79Wx8d37dTZxT71CITvrwgCITXY+8cFC078/vuF8+fz2Uhv3rjRt1dvHpOFQAhABwiEQCNFEwiD5IqQgMCKIaEVQ0KpCTyujwpBwZUrhFE5hLarjL5n70el0AqVQivks7TDgkMqhVag9tBDIPwgJ3xoYFDFkNCwgpzwIQGBrk94BMIPWEfUWU2d+RX+3evFdR1VDAkNCw6hqgmrjBaeIgiE1FD8sOAQqk7z2UirVKwUrAgIlMoRCAHoAIEQaKQIAiH16xsSECgTiSUCoSTHvl7ODgm99yH8UL2yBSptF50eCITv1gFVkBNe6GJeLgJhIdURNZOwQM3ExWxeBMIPpQgCYfaDM6lQJBEIxfk5AQRC7EMIQCsIhEAjRRMIC+NAICzKA4HQHU54BEL3PxAI31/RBMJCaqQIhAClBgIh0AgCYVFCICx2CITuD4GQ5hAIAcAdIBACjSAQFiUEwmKHQOj+EAhpDoEQANwBAiHQCAJhUUIgLHYIhO4PgZDmEAgBwB0gEAKNIBAWJQTCYodA6P4QCGkOgRAA3AECIdAIAmFRQiAsdgiE7g+BkOYQCAHAHSAQAo0gEBYlBMJih0Do/hAIaQ6BEADcAQIh0AgCYVFCICx2CITuD4GQ5hAIAcAdIBACjSAQFiUEwmKHQOj+EAhpDoEQANwBAiHQCAJhUUIgLHYIhO4PgZDmEAgBwB0gEAKNIBAWJQTCYodA6P4QCGkOgRAA3AECIdAIAmFRQiAsdgiE7g+BkOYQCAHAHSAQAo0gEBYlBMJih0Do/hAIaQ6BEADcAQIh0AgCYVFCICx2CITuD4GQ5hAIAcAdIBACjSAQFiUEwmKHQOj+EAhpDoEQANwBAiHQCAJhUcoRCIMQCIsFAqH7QyCkOQRCAHAHCIRAIwiERQk9hMUOgdD9IRDSHAIhALgDBEKgkSePH3P8/EvijRePxS6RgfCrUUIuL6hEBsIypSEQHjjoiUDo3rQlORD6eHj26dkTvyzv4+yZMz7lPUpiIOSx2H169Dp/7hwqEaAUQCAEGnn48KGvp5eAzZGLJQU6FBJpaOD7jnsMDQwKDQxSSKQF/esykdjf26ftJ58e2H+gBJX2P/f+GTn8S7afv0QgLGhpB8rkH6TAA6QyhbjABS4RCBkMRnRkZEk/4ffv3cdgMMR8QUHLP0Aq+yDlHyiTv8MJLxWKmN4+/Xr3vfzX5VJ/UdJoNAvmzVdIpPwCXpc+cDN5h+uSUFyOwejepSt+Wd7H6ZOnyjEYIh6/xDVSf2+f7l26njl9BpUIUAogEAKN3Lt7z9fDi+PPFPH44nwfEr4g+wf4PX93qXQn5gvy/9dFPL6Qy/Px8Pz049aHfztUgkr7zu07w4dFMH18BRxuAQqcL5CJxHKx5D1vd7LvciQCYUELXMDhMhiMZUuWlvQTfs/u3QwGg8/mFKj8qQCvkEjfp2uXihnUjWOBT3gOz9fTq0/PXhfPXyj1F6WMjIx5330vE4nZfv4FqiapUCQXSwLe71lVkFxB1XVBm4mYxxdyeWUYjG6du+CX5X0cP3asHIPBY7FLWCPl8nw9PLt26nzq5ClUIkApgEAINKLX6zdv3Lhz+/Y9u3bv2Z3fY9/evfv37evXu4+/l887j76TicQVQ0IH9O23f+/e/Xv35v+v79m9e/euXZs3bjx+7FiCSlWCSlur1V44d27r5i27d+4sQGnv2XNg//5xo8fUrFZdIhC+820u08e3Q7t2mzdu3Ld3796ClPae3bt379y5acOGB/fvl/QTXqlUrl+3bldByn/vnj179+xZt2ZN88ZNOH7Md77RlPAF9WvXmTJp0qGDB/fu2VPQE37Lpk2nT51KT08v9Rclq8Vy59btXTt27ijIdWnv7j1HDh+eMW1a3Zq1pELRO2dCLpNVs2q1zZs27du79x2qaeOGDadOnsQvy/tISUnZsG79rh07ClD7e/bs27M3Njq6ZbNmXH/mOwdCEY/fqH6DGdOmHTxw4B1qf/OmTSf/+CM1JQWVCFAKIBACvRgMBrPJZCkIm81GkuTe3XtaNG0mYHPe4YlsoEzO9vPv3rnLtatXSZK02WyWgjGbjEaz2Wy32+12ewkqbYvFYjQazWZz/r+q1WolSfLlixcRQ4YyvX0CpfJ3SCMCDrdpw8Yb1q1/p9K2mM1mg8FA1XtpOOELVv4Wm81ms9n+9/PPNapUFXJ5BQ0bVLcD09tn+tSpSUlJJElardaClr/RaLRYLDS5KNms1oI3EwtJkiqlct7c7/hszruNaRdwuLWqVf/lp58sFovdbrcWvJ1kZWWZTSb8rBR9I7Xb7Waz+X8//VytUmUxX/AOjVQhkQrYnGlTpiS/TyM1m1F9AKUDAiFAvmRmGlbGrghWBMrFkgL9+oYGBvHZnAZ16q5ZtQrFmH8HDxxo3rgJj8Uu0CKloYFB1DDRX3/5n06nQzG+M5VSNXniJBGPX9Cxu4EyOY/FbtO6NZYfLAI3r99o2/oTMV8QIJEWLA+IJWK+YPSoUejhKbmePnk6Yew4AZvzDo2U7ef/RYeO586eRTECAIlACJB/iQkJIyKGK8SS/GdC6kGsmC/4Yf78jIzSP/7tAzKZTDGxK6h5gPkv7QCpTCoUde3U+Z9//kEZvqcLFy60+7SNgM3J/0hparXMiiGhu3butNqsKMPCZjQat23ZUiWsYv4HjoYGBgXJFXw257M2bY8dOYoyLNHOnjnTqlkzEY9fsEYqFFUICt61cycKEAAoCIQABfDo4cMGdepKhaL8/PqGBgYFSmVivqBb5y43rt9A6RXUs6fPvhwWIROJ8zkiLlAml4nEtapVP3sGC999GHt27RLx+LL8hQ3qRjNYEfj93O8IgkDpFQ2z2Txx/ISw4BCpQJjvahIHyeSbN2xE6ZV0Nptt146dMpFYmv9GKhIHyuQ//fBjRkYGChAAKAiEAAVgs9miIyOrVa4s4HDf+usbGhgkEQgDJFIszP3Obt64WadGzfwk8NDAIBGPXzEkdMmiRVlZBhTdB5GclDz5m4kBEll+MmGAVCbhC5o3bvLyxUsUXVHKyMho+8mnPCbrrSshU3lAyOX97+ef09PSUHSlQGpq6pivRwfJFPnJhAqJVCYSf9Lq4xQMFQaAHBAIAQpGp9MNHjCA2kDC9U+vkMMNksuXL11qwroL78put69bs6ZiSCiPxXZd2nKxRC6S9OzWHY+9P6wnT540bdhIwhe+NWywfHwb1Kl79PBhFFrR271zV4smTdl+/vnJA61btHz44AEKrdR4/vz5px+3lgpFrhtpqFzBZ3OafNTwNPaKAIA3IRACFNiF8+c7dejI9vVzseKoVCgKkMr79+lLqNUosfeh1+sjhgwNkiukznehCJIr2H7+bVp/cvLPkyixD2792rX169R13Ssu4vLDgkPmzJyF4ioWNpttzqxZConURTdRaGCQmCeoXb3G7l27StZ6xfBW69aurVuzlusnAgIOt2rFSvO//x7FBQC5IBACvIs1q1bVrFrN2aL8QTK5kMtr+8mnx48dR1m9v9OnTnXq+LmQy3M4cDQ0MEjI5VWtWCk6MhJlVUimTpocEhDocGdIauUkEY8/YviXD+6j36nYXP7rrwF9+wk53ECZ3OF1ScjlVQwJnTF1Gsqq9LHb7ePHjHU2mZBqpBK+8MthEU8eP0ZxAUAuCIQABUM9WddoiJ9++MHhDmDUZLYaVaouWbQYxfWhxEbH1K5RU8Tj5y1thUTKZ3PmzplDzYlC10dhuHb1ar/efXhMVq6wQS1ZKeLxW7ds9TsefxS3E8d/r1ertkQgzDV4gVqAl8tk9evdJzExEQVVKl3+63K/3n15LLbDRirgcNu3aXv82DEUFADkhUAI8I7+vnKlfZu2EoEw568vlU98PDynTJqk0WhI5JP3RhVgpl4//7vvfT29cibw0MCgQJlczON3+aLTX5cuoawK1cb1G+rUqCnm8amSz7lIiUwk3rp5C4qo2BmNxg3r1gm5vJzdRK/3mWCxP2n18e5du1FKpdi2rVsrh1WUCIShgUG5GqmIy9uyaTOKCAAcQiAEeHdHjxyRCUViviD7p5falbtPz17IJx/clctXenTtJuTyshdOoG50QgOCfjt4EOVT2CwWS2xMDJfJyrkzJHX+z546NTEhAUXkDhISEoYMDqe2YMnZTILkipioaJRP6ZaZmRkTFS3m8d9opCIxj8X+dvbsJHQOA4ATCIQA785oNC74fl6gTC7k8rJvvKqEVUQ+KSSHDx0KCw7J3gKB2iJvwffztFotCqcIvHz58sthESIeXy6WUPtMyMWSVs2a37t7F4XjPi5cuFC/dh0hl0cNHFWIJf5e3t+MG//i+XMUTqn3/Nmz/n36SIUiqpEqxBKFRPpFh47/3LuHwgEAZxAIAd5Lampqt85d5GKJTCiidh38dtZsrCxaSLRa7eSJE4MVARKBkLrj6dzx81evXqFkisyVy5epnSGpqZs1qlRdu3oNisXd/PzDj1UrVuKx2HKxRCIQNm3Y6MrlyygWmvjzjz/q1KgpEQgVEqmQy6tVrfq+vftQLADgAgIhwPvat2dvy2bN/b18JAJhh3afJScloUwKj/LVq8/bt5fwBUwf35bNmh89chRlUpRsVuu8ud+FBYcwvX3kYsnI4V+iTNyQ2WQaETGcy2RxmazKFcJ2bN9mtVpQLPQxY9r0iiGh/t4+QXLF6K9GoUAAwDUEQijZ7HY7abeTZHEdr02bPIXp7VO/Tt0L585lf7TiOV4XyAcr3+IrW6cFvm/P7nq1avPZnNkzZxZzaTupgg+2klAxn96Oy99sMnVs91kZBqNPz56vXr5wuyoo5U0gv9V06s8/O7T7jMdkDR0cbrdZ3bGlFG1VlsSKfOffJILQdOvUuQyD0b1Ll9TUNBqWAAAUCAIhlHR2o8Wm0lmfEpbnGsuLIjyeEJZXute3WS+ePpkxdeqoESOpf8y02F5prc+K9vM811heaK1pBusH/U20PyGsz4gi/SIOj2cay0utVWu2UR9r4vjxE8dPePr4EfWPiXrrkyI/AfIeTwnLK631g96W2PUm23NNUZ9LDs+uR2pLuvH1CX/65InxY8aujo+n/lFttL3UusWHLJwmYCn2r5b/ZvJKZzXZXjeTmKioLp9/8fCff6h/JIzWx27QTPJZlY/VFo3J9gGr0kaSFk2KKemxKeVZqT0SHlo0ydT3PXrkyOSJk9auXkv9oyX9lSnxYWn+7slPzGkvraYs3BUBvAMEQijp7L9ez+p+UN9+r+6L/bpORXV8sV/32R5dr0P6jf+YqM+hevWKWlrDTpIzzhk+2aX7fF/RfaQv9uu+2Kdrv1fX8zf9uZfmD/JY3WS17X9k6rBX36Foy9bht+u4T9d+r372hdc/9o/v33/x7Bn1v5fdNPb4Tf+ZG3zIDnt1nffrZ1/IMlhsH+TkfkpY+hzK7LhPX5TnkrNv9+lu3YgTmWcTLCRJknbLi+fP0lOSSJJMyLQOOZbZbo+ueD8k1QQ+26PrezjzKWH5IEEiI8sWf9vYfq++Y3GXf/6bScd9+i9PZGbZSJIkkxMTbly/QX2XrfdN/Q5nfrZH98V+d/8uVFW23a37+g/DyRfmD/AjQZJWm0138Je0H9ukLmid+mObUnp8mvpd04yYQcZHF0iSzLLYXr1SpqQTJEna0p5nRPZLnds09cdPS+3XX9A6bUFr/R8rbOgnBCg4BEIowWx22+Z7xuobtOWWqcssVZdfVqQHY4naYznRbLvuvvqNyTmb7xqDV2sYv6rLFe3nKbdMzViiLrOU6H1Ifz/9/W+IbYcemVrt1DGWFEPZ5j3KLlUzFqkrrtPueWzK+SlvpJprbtSWXUowlrjFhyyzVC2J02z/x2S1v28mTNBbp503MJYQZZYW9bnk+OxarPaPJgYcycy0ZI8/JI02ct4lg28UwVjkLh+y/DJi3JnMF5oP0AS2/2OqvkHLWKIu6wZNIP8l4BtFrLtttOb4Jiq9tcNePWMpwVhS/NWU/6sZK5oIP5b5UP2+VWkjSf35LcnfVFB2YSh7MpS9Su/RlZEwoEz6sp6kKTPH97cSG8YmDCz7qkup/u49GcqujJRpNfSnNyETAhQUAiGUXPZzKnPYWi0zmuDFqWXxRNEf7Bi1XxQx+4IhNYu6+7LfS7c02abjxBL84vhI0jg1N5bwjyJmnze8Hrv4Dl2FdjtJ2s8qzZ3368osVfOLqWzzHrw4NS+WaLlT9/zfe/1XOuvoU5mcGIId4y4fkh+n9o8mmmzXHX5meo97ErvebJt3ySBYoWHHqEXuUQWieMInUi2N02y4bbSTVNy1//bUJF+l4cQQQjf5kHFqTgzhG0XMv2RINVjftfjtJGk/8cLUYa+u3DK1wG2aQH4OQZyaHUPU36z986WZOgOtdtu084aAVRr/qJL0RUTxhF+UWhynGf57pt787sOAbSSZ9fivlNkNVIM9lIM9VcPZpfrwU/ZjJIR76y9ssf779TOvH0oc4qMaUFYZ4Vu6v74y3FvZm5EyuXLWo4sfZpAGAG0gEEIJZf8ryfz5fj0zmuDHqaVxxXPLQgUwZjSx65GRJO0ak3X0aYNwJcGJVUuLJxASsniCE0v4RhLfnDWkZxU8E9rtJGlP1FuH/5HpF1VsSdtZaXNi1bxYYtJZg8ZkJUnbmptG/goNL5aQus3nlMYRgnjCK5L4Yr/u5CvTO2VyO0naF1/NqrJO6+dmd/DCODUnlqi6XnsnzUKS9suJ5pY7dKxoQlh8bTBv+UvjCHYMIVypWXotiyRtJFnANX7sdpK038+wdNqvL7O0hKXBnGfg0BN6qm/tvMoki9f4Randp5nkv8n7R6kVqzSrbmZlvdMwbDtJZj39O2VKNdUgD2W4lzKCVdoDIVsZ4aMa7Jk8qbIx8SFJkllPLqdMq6EaVF4Z4aMq9V8/gqUc7KkK90r9trEp6TE6CQHyD4EQSho7SZLkzVRz+DE9M5rgxxdnGJDGUY+xic8P6o48Mx1/YRSs0HBji/kjSePUzGh16FrNj5ezCr7AiT1Jb+31m54fS8Vat7tB5MYSvFjiz5em354aP9qqZcUQon+TsPvckfPi1H5RRK/f9LdT32G0mz3yhrHmRi0z2l263XKWPz9OzY0lZpwxXE02L7xq8I0q5jbouFXGEcxootI67aKr79IEEvTWrgf03FiC4zY9zwUtAW6sWriSWH49626audkOHTeWKHHJNvsZBDuGkMVrNt4xmqwFzoSmxIcZkf1Ug8qr6JEGVcPZygiWKtxbNai8esfszDsn1NtmqPozVOHeNPr6g70Shnin/9LelPIMd0wA+YRACCWOXamzfn0qU7iCYEUX/zNvaRzBj1PL44lGO7StdmqZ0W4xwI+6i6q2QfvD31kFuhu22m2Tzhnk8Rp/NyhbZ2MC/aPVH+/UNt6hFa6g+qbc8XMyo9X8WKLfYX1qwRa9tJ94Yaq/RcuKca/u2ZyZkBdLVN6kabVLW3uLxh3aoONesji1fzTRYIt27V1jgZpApsXa65BesIJgx5S8LrWcJcCOUdfZqmmzW8tfQQjdLLQX6BDEqX2j1HU3aw88KdgwbJPqH/WarxKG+asGe9AkDmWHIuVgz8Txwcmz6ySOD1EOKk+3r68a7JkQ7qXe8LUp6THumQDyA4EQSha7wWKbet4QsErjHelG9zf8ODUzWs10p5tjfpzaP4qosl6b/8lsWpPt17+zQtdouLFu1zeV62aXKm33Gano8PCJVAtXElPP/Tt2Nx+n9zmVuf1eHTuG4Lh1+as5K9X+UWr2SrfOGNw4NTeWaLFDd/yFOZ9NQG20/nA5ixXtFg+b3r+a2CvV/lFqgbs+NClAvI8nvCOJNrt1hx7laxi2nSQtRj2xfWbil1xlPwat4tB/mXCQh3JAGeUgD7p999dff0CZxBE8YsdsizYNY0cB3gqBEEoQe5bFtuJGlixe47lc7eweSBqnlsSphUV7CHIcRfynJc7v9nhxak4M0XqX7mJCfm6I7dvumSRxGmcjFYurbN2qtJ2Vv9RJibGi1fxYzeKrWXrzW0e72W+lWgYc0ZdfpubGuTq9i/0rC92p/F03AU6cmh1DfLJbR016dF0BBott+fUsSZyGE0NI3bsJlLhmks9D+vpwPBCj7FJ1h726mylvqUo7SVpJUnt4SdL4EGVvhtPAEMFSRjCVEb7KCF9lhA+OknZQFcd0mvYj/JR9GEnjgrQHfrbarMiEAK4hEEKJYbXbdj8yyeI1LOeJRRRPCFcR4pWEiDaHJI4QxDu7fyV4cWqfSKLvYf3VZBeZ0E6S9v0PTc226/yi3lK2kjgalW1+jtcnm5MqoBa9lMZrdjx8PXDRQd+G3U6S9pRM66zzBr8owtkaOVQViFfS6/TOT/m7bgLcWLVvFDH9bOZzVxtR2EnSvuGOsdZGrX+UWhRHOG0CK9EECq0q4wjRSqoqHc8K5sSq+SuInr/pkzNddbnbSDLz+uGk0TJlb4Yqws9JGvRVDfVTDfNXDfXDUYKPYf6qoX7KCF/HsTDCT9mbkTQhVH92AxYdBXANgRDc3b830PaTr8xV1mupBe7z3vxlL3dRbYO29S5d+736tntK+dFuj779Xn2HvTpJHMFysjkBNePLJ5L46mTmY2o7r1yJxG4nSfsfL00d9+l8IgmBk1sxQZxauIKosl7TcZ/us9JesPk/Ptujb7tHV2ezVrSS4Dnu2VAL4wlWNFFlvXbNHaOTBU7sNrtt/EkDO4bgxLyOMQ6G/8WoA1dpPt6pa7dH1w6Fn7MJHNCJVjqd8kctROQbRUw7b0jKtOa8puSsgrV3jQ23vn4gInUyBluwgqi6XtthL8q/UKqy4z79R1u14pUEN9ZxJpTGqTkxakmcpv+RTIOTRUdtJJl1/2zyhBDVwPLKcG/HE8yG+KgGlkuaVCn1u2Zp81umzmuBoyQeafNbpn7XNGl8iGpAWdUQH4eZUBnho+rHSBobYHx5C5kQwAUEQnB7djtJ2g89Nn28U8eMdtoVwI9Tc2KJJtt0V5LMKQZrcqY1SW9NLNVHUqY11WBNMVijrmbV3Kj1cj6MlhWt5sYS35w1UKvw5yrfO2mWrgf07BiCE+P4VlgYT5Rdqm6+XbvzoTEtixZlm88jOdOaYrA+ISwf79SVX+Z4z0ZpnFoQp/aNIj7b63Aym50k7T9ezgpb+3pjAIfj5VjRak4sMe50ptZkTcm0JmWi8F83gTSDNSnTOuOcIXi1xjfSaRPwi1IHrNL88JfjJnA71dxuj87f+Y6mgniCsUTd5YDuvMqEJlBIVZmeZX2stiy8nMWMJlyM2uXEENI4zXeXDGlZDvaZzHpyOWVKNdXAckon62oqw71UgzxS5nxk+Oe02aAxE0lmdQKOEnkQSWaDJvP6oZRvG6sGlHWY/1XD2crBnqqB5VLnfJT18AIyIYAzCITg/uzXUyx9DuupbfEc3iUI49Tll6nrbtb+8fJ9dgMvqeVjsFi/vWhQrNL4O99qzHO5OnSN5qfLWUZLzhtiu9ZkHXhEL1hB+Eerna3q6RWpbrBFu+a20W630a9481UFvz01tdqp81quFjpZ5IYToxatJLoe0J989UYmtNttS69lVdugZcc4HazLiyUEK4gxpzMfqS0oa4fln6i3fnPWELBK42xhJ1Gc2jdKXWW9duHfWW9mQvuNFHPvQ3rhSoLlpAkI49Sey9Utd+j2v17lEk2gEKsy1WD97qKBFU34RzmtDlYMEbJGE3/LaPx3IwqqVozPrqUv7aHqzXC25aAywkc1sFzy+ODMy3uQDUoHG0lmXj2QPD6YegrgeIRwuJeqHyN9WS+j8h5KDMAhBEJwc/YnhGXkyUzFKg3TWWKJJ3yj1NU2aKNuZNH2du2h2jLmdCb39eaBTm+IA1drYm4aSZK6F7KnZ1l/vpLFiSF8o5ymQXYMEbBKs+x6fpZFoe9ZSpL2TXeNdTZpPZernS3QyoxWc2OJzgf0Kl32DCj78Rem0DVaZjThpHeR4MepfaOIPof0d9KQBl25nWYZ8kemfzTBi3X62MhrubriWu2eR9mPjewvtZYvf8/0jSKcXV4EcWpmNBG2VrvpjtFqQxMoitakzrL2/E3Pi3VaKVRVNt2u3XLPaH99NSNNKU8zVgxJGFhO6WSTCWWEn7IvI2mMXHt4MSqyNLGSpPbQwqRxQaqB5ZQRvk43ohjiq94wxpT0xE6+dZ1aANpBIAR3ZtearMOOZ4pWapw9LZbGqf2j1QGrNIuvZjkaDEYjt1It1G7azjYKpzYnDF2jOfnKRJJ2s9UWeS2LFU2wnY/O4sYS4pWaKdmTr8A5g8UWdSNLHq9hxxAi55mQv4KYd8mgNlpJ0n4x0fzpbh3LSRqk1ollxRCNturOqczomHrr5eLkK3PrXTp2jKuB5dxYot5m7V+JZqprfdGVLHYMNWnNcZPhxBJBqzU/X8kijAgRRVeV15LNHfbqWNGEsxV3X49j36E7+MxGkiRpNRCbxyaO5CsHlHG6FcHAsonDmMT6cRjnUNpOF5K0kiSxY2riKLGyP0MZwVLlfSIQwVIOLJsw2FMdP9xi0OEEAMgFgRDcV5bFtupmljTO6TCw7OUi5v9lSDVQy0XQucDsd9MsLXboeLEE38m6O4I4NSeGqLtZe1pp2vnQGLj6dXpxtn6DaCXR4ze9xog0mC86kzX6WpaLPc2pGVDMaCLudtaR58aI3/W+Ua4CvE+kusJazY0UpMH8NoG/k83VN2g5sYTA5dJTrXfpriab429nuV7IhxWtDlilmXreYLIiDRZlNdpJ0n74sanNbp03tdKVk87b8svUrQ5aXqhNxq3j00bxlP0ZSkfLiqoiWMpBHgmDyhNbvrFkadGWSuEpQ5JWq1kdH5EwoIyK2noxTyZURrCU/RlJYwM1+xbgoQBALgiE4KZMVtu620bFKo2zuVWyeIIdo2bFEHMuGHKMwaM5+6UEc8W1Wp9ItcDZAifxBC+W+Gi7tu5WDTfW6X4J3Dg1L5botF//UmtB2ea//FMN1gFHM/krnI52E8Wp2THquls1dbZq5PFOp8WK4gmP5eoq6zXrbmcP8YX8sP321BSyRuPvfAMVQTwhXEk03qGttUVDLc/rcGVddoyaE0N0O6hPMeDyUgxNiSTtO/4xNdyq84tyOgybE6fmrTO33Zp6YULj1EFlUsLLOVtWRNmDod440ZT+CsMFS+fpYiftJGnOUKo3TFD1Y6hcTiJNGh+sPbLUivMAIAcEQnBP9j33TfW3aL2dBBtZPMGKUbNjiPZ79U8IJJb/yo0k7Tv+MdbbrPWOVDu7IRbGqflxhCDOWd/g6z2gP92lo0bWoVgLVAWP1JahxzNl8RqHi5RI/817vDg13+kG9ITXcnXNjdql17KMVjzLLlj5W2y2VTeNFdZqyi9zOs5c8G8TcLasKzdWzYslBh3NzM+O9lBIbHbb2ttG4UpXe89y4g28FZrBP8TdGhGUOZiRlGcKmXKQh6o/I315b+OrO6jIUt74SdL49O+0hZ2UPRnKwZ6Onw6Ee6kGlkv+Jizz5hE8aQPIhkAIbsZuJ0n7seemNrt1XsvVwngnOxTHqYUriY779CdeIrHkLkGStC2/nlV1g9ZjmVrkNHI4G9NICOMJn0h1ix26XfexpuI7VsGVJEuXA07XxZXGOS1/qmqY0WpZvGbeJQNhRN/Uu5S/2Wqbc9EQtFrj7WQjCldNIJ4QxBMey9Vf7NOfVZn/vShB8cjIss7/yxC4SuNsnqc0nuDFGWRx6inz/nfrqwrGwQxlrjQ4sHzKrPpZj//C3T8d2EjScPeP1B8+UQ0qr6TGjjroMfZS9WOkLmiddf8s2jYABYEQ3I39udbSYa++7FI138nDe2pXt4936Q4+ouEmE/kqQ43J+sNlgzze6fRLZ4cwTu0Xpa6+QbvjHyPK9l2L306S9t0PTC126PyjX3dD5bP8qU0muLHE16czH2KTifeog0S9ddLZTBfzOZ0d1OWlwRbt/oe4vLgFk9U2/qxB5uxqFqeWxhPseAt/ddZ3c79NjPDTRJRRRbCUw9nKcG/VII+U6bX0ZzYhDdKHjSQN/5xJnlTZ1eaE4V7Kboz0qP7Gl7fx1BOARCAEN2NPzrR2PaDnryA4MY7ToCieYEYTlddro28a0X/lQprBOv+SgRlN8GLzG0ioTSaEKzSrbhkNFtxBvetJ/PqUtB98aqq47vUGg9K4/KXBeIK/gui4jxoIDe9cByRJkv+kW0aczGRGE/x8NwFhnJoVTYhXami5o6n7VqfWZO16QM+OIbixjn4X4glRnM5/DVkr+v6vsyemD/VIHe6livBR9mckT66iOx6FiqQbG0lqD/ySND5YNaCMw40oXm9Y34+RETPQnK7EGQKAQAhuJM1g630oU7RSw3H0UF8aT4ji1JwYQhynWft6pQ27HaO5nLI/yLB0O+j0LsrhBh7SOE30tSydGfPWPgCzzbb5jlG00tVGFDkfdvDi1LxYosUO3f0MzFv7ME3gdpql60E9O4Yau/v2JuAbpZbHa2KvZxmxrKgbVaOdJO0vNJaBR/S+kU527IwnhPGZzDX22tH3F82ckDTEK6E/I3GYP7FzutWOtkS/U4YkbSSp2bcgaYxc2Z/hOBBGsJSDyicMLJuxuCuG5gMgEIIbeaG18mI1/tGO756lcWp2DMGKJn65kkVgI4R8sd9Js7Tfo+fHEpy3BRL/aLVwJTHoaCbmrX3A8teZbFHXsvgrCJ9I9VtHKnosV9faqD2jxLTYD1kFV5PN1TdomdEE721NwCdSHbRaM+OCQWdCE3C3arSTpP2Pl6b2e3RlljpZaSxOzYq3SuPUwxasTh7ISOzPIHbOsejVWFaUpqcMSVr0GcTWKQnh3spB5Z0sOuqn7MlImVzFlPQY5wjQHAIhuJHnGovHMoIV4/i+zS9KzY0lJp7NTNTjdi3/7L+/MDfdrvN3vvu5NI5gx6iFK4h+h/W3UtE39YHLX2uyTjiTKYvXuMiEoji1d6S6wRbtmjsYCP3hq2DrPdNHW7WcGELgciEfSZxm1KlMJfawcVc2u23PfVPzHVrfKMeZkBefJYtN7/fjqpS+jMzYfqaUZyg0Grd7kiRJU+pz9frRqt4M5WBPx5mwDyN5UmXjs2to80BzCITgRl5qLT6RBMdRIOTFqcUriR6/6ROQBgvGTpL2NXeMTbZpWY4GLlLLinJjiW4H9KdeoW+qUKrghcYy7HimOM5pJxU7Rl19gzbqRhY1EBpF9sGrIPJ6Vp1NWla0493qqc05h5zIvJ6CqZtuzWyzbXtgrLxey1/hYF4oP94gj1YOWrBW92tb8tV1NCQgSdKU9Djth08ShvqqhvjkzYTKPozkKdWML27hbAGaQyAEN+IiEHpFqtvs1t1JRWJ5B3aStMdczwpareHFOrgb5sYStTZpdz/CJhOF6HqKufcRvbNdEDyWq3+4aDBYMBC6sJqA1WabfCaTG+tgOztqLHrrXboLCWaUlPsz22yzLhgUqzTcleo8PYR62bJnQ1b8SaY/QUHB68ZPkkbVP8mTKqnCvZ0GwpcIhEB3CITgRlwEQsYS9eDf9Ugs78JOkiR5Jcnc/4iOGe3gbpgVTQw7rr+bhr6RwhV5NYuxxMG5LYwnGEvU+5+YUESF1gTsJEmuummsul6Tt5NWGKf2iyJW3soyYSGZElKdFxPMldZp8l7NeHGEYrX6yz8yUUaQk9VuS1/UOWE4RznMB4EQwCEEQnAjrgPhoKP4mX93fyeb+x/T+0apHS0uSkSc0N9NRyAsXNHXsxiL1CKHgXCx+gACYSGLv22sul7LzdNJLohTe0cSa+5kmW0IhCWC/e8kc9hajX9U3kCoVqzSjDhlwHNDyMlqs6Uv7pownK0c5o1ACOAQAiG4EVeBcLF6IALhe7icZO7jJBD6RRFDT+jvoIewkC1zGQjRQ1jY4m8bq6zX5r28COLUXpFE/M0sI/beLBnsfyWaK6zV+DkJhF+eyEQghJysNmv6os4JEay8+9QjEAJQEAjBjSAQFp63BsLbCISFDIGweCEQlhYIhFAwVpslfSECIYArCITgRhAICw8CYbFDICxeCISlBQIhFAwCIcBbIRCCG0EgLDwIhMUOgbB4IRCWFgiEUDAIhABvhUAIbgSBsPAgEBY7BMLihUBYWiAQQsEgEAK8FQIhuBEEwsKDQFjsEAiLFwJhaYFACAWDQAjwVgiE4EYQCAsPAmGxQyAsXgiEpQUCIRQMAiHAWyEQghtBICw8CITFDoGweCEQlhYIhFAwCIQAb4VACG4EgbDwIBAWOwTC4oVAWFogEELBIBACvBUCIbgRBMLCg0BY7BAIixcCYWmBQAgFg0AI8FYIhOBGEAgLDwJhsUMgLF4IhKUFAiEUDAIhwFshEIIbQSAsPAiExQ6BsHghEJYWCIRQMAiEAG+FQAhuBIGw8CAQFjsEwuKFQFhaIBBCwSAQArwVAiG4EQTCwvPWQHgHgbCQIRAWLwTC0gKBEArGarOmL0IgBHAFgRDcCAJh4bmSZO6LQFisEAiL19sDoRWBsER4SyAcgUAIb/ovEA7LEwj7UoHwNs4YoDkEQnAjCISF50aKecAxvZ+jQOgfTYw8oX+QgUBYuGKvZzEWOwmES9SHniIQFq51t43VNmi5sbmbgDBO7RNJrL2bZbcjEJYI9mvJ5orrNP7RDgJh4CrNqFMIhPAGK0mmL+mWMJztOBBOq2lMuI8zBmgOgRDcCALh+9Cb7Yk6W5rBqjZaCaNV8++hNVntdtufL029D+mY0Q4CITuGGHRUfyHBbLfbtKb/XkgYrWqjNdVgUxtsJit+Lt/CbLNrs2yJGmtG1hvlrzFadSYrSdp+/dtQZqmDc1sUT5Rbpt5830iSNt2b5U8YrWkG63ON1WpB+b9dltmepLOlZb0uulzlH3kjq9oGDS/OQSD0jyaWXTck6i1Gi03zZhVkZFlTtNZUNIEiZLfbLRZ7mt6WashdlZlmG2G0/v7CWGmdhpXnl4Ifpw5cTQz/PTPTbM1blWqjNUFjTdTbSDuqsvSdM6RVm2LRJFt06ZZMtSWT+O+wmk1EctriLxK+5CiH+eQOhP0ZyVOrG+6fNRu0liz9Gy/Uqy2aFIsm2ZZJ2HHOQGmHQAhuBIHwfSRl2nY+MY07aZh+wfDtm8eCi4aI3/WNt2n5cQ4CIT+eaLZd+/WJzAUXc79wynnDuJOGvxItJjN+Dt/Gbr+Vapl6NmvqWcOcPFXw69+Gzvt1efs0qIMZrR5wWPe/K7lfNf2CYcoZw+JrxjQ9Oq/eTqmzbbznuAn8dNnQ/aAueB0hdNQEuLFElwO6GWcyc71qzgXD5DOGKWeybqZYLMjkRdiUjFZbzE3jhFOGGXmq8ttzhi+P6QNWEQ6vZvLVRNOd2u8v5XnVBcOk04ZvL2QdeWlG/2EpPGVI0vjgpHbnt+o1o4it0944ts3O2DIlaUo1VQRLGcHKHQgHeyaOlqXHRag3Tye2Tn/ztZPU8cP1x6OtBi3yIJR6CITgRhAI34fGYFtxy+i5XMNYqGYsUZdd+voot0xdfpnaN0rNjXOcRqRxBDdW7ROpLr9MXW7Zfy9kLFYzFqr5K7QnX5ntuBvOh7+TLY236RkLCcYidZmlb1SBx3I1K9rBeNHsTkL/aLVHrvJfomYsVHst10w4nZWsQyB8u2Sd7cfLWWWWahiLcjcBj+VqZrRa4KQJiOLUrGi11/I3yr/MUjVjkZqxiKi+QXc9xULa0ASKit1ut9vHnzL4RmkY/3NQlX5RrqqSHeOoKherGf9TN9mm/+05AmFpPGVI0nj3eNKMOs8/Zyi7MpQ9GMqe/x69GMo+DOUgj7xp8HUmDPdW9mMoe+d4SU+Gsjvj+eeMl70Zmo0T7CQ6laH0QyAEN4JA+J4Io23GRYNopcY/Wi2IU4viCWcJxMVBvYofp/aJVFdYo1l1x2i1IY3kk/16srniOq1/FMGNfV3+oncqf2GcmhmtFqwgevymJ4xW3MLmU1Km9csTmfwVBPO9mwAvTu25XF1zo/aUEhGiGJqS3mwbdzKzzFKCHaMWxhHvXpVxBD+e8I0iQtdqN9wzkSTu7kvj6UKSdpLUn16bPLmKsi9DFe6tivBTDacOdr6P1y9RDvFRDSyn6skgtk6y6DNIksSQUSj1EAjBjSAQvje7zmRtt0fPiSWc9Qfm82BGqxXxmnEnDXa7DXfDBagAu23bPWPoGo135HuVvyBO7RNJtNmtu51mQfkXqAaeaSytd+l4sQTv/ZqAb5S66nrt4qtZ/95tQpE2JJK0X0ky9zmk91rutD8wPwc1JNg/ioi9nmXBs61SzUqS2sOLEwZ7qZz3B+bnUIZ7q/oz0hd3Mz67hpYPNIFACG4EgfBDsJ9XmZtt13kuVwvf9S6KH6f2iSL6Hta/0KJvqsDlb7LaJp0zBK7SOJsx+PZujTjCY5m68Vbt1ntGpJF3qILDz0wNtmi9I9Wid2oC1CBqVgwx/owhy4IHIsVZlUefmWpu1LJjiHe+mrFj1H5RxMSzmSqdFQVa6pmJZGLrNFVPhnKQxzumwQgf1SCP5PHBhrsn8fwA6AOBENwIAuGHYCdJe+wtY82NWs/lamlcge+fhHHqskvVn+7WnXhhJkk7hle9QxU8Jaz9j+j9ogh+XIGrQBqnZkWrFas0v1zJMlmRRt6tCdgW/p1Ved279NNK4whBPOG5nOh1SH8lCXuxFLNMsy3qhlESp+HEENKCZ0JenJoXS7TepbuXjp52ujR+U8L91O9bqAaVVw72LHgaZCn7MxKHs3THYqxWNH+gEQRCcCMIhB+IXW+2zbtkEKwgODHqAt1FvU4j8ZoNd4y4f3of+x+Zmm3X+USqRfFE/jMhtegrJ4b4+lTmQzVuR969CSRnWr85m8mJJbixBWsC1C4UdTZpjz83oQm4A4PFNuz3TOFKglXALndhnNo/Wl1rk3bPA1QljdhI0nDjSPI3YaqB5ZQRPgULhAPKJgz1zYjsh95koBsEQnAjCIQf0L10y7A/Mv2jCUF8fp+sS+PUvFiCG0ss+MuQasAP4nuyb7xjlMZp2DEFKH9BnJobS7TcqbuWjIVM3qfsSZIkLyWaux3UMwvYBDgxhGilZuMdoxnzzdymOhP11lY7dT6RDraacNHTy4pWB6zSTLlgQFOiGxtJanbPShwtVQ4ok//JhMpwb1VfRtqPbUxpL3HGAN0gEIIbQSD8oOxXkszVN2g5MYQgHwMXpXEEL07NX0F0OaB/iamDH0KG0frLlSy/qPz20wrj1KwYImSN5vcXJpJEGvkATeDYc1O1DVpOLCHMVxNQs2PUkjjNhLOGjCw8EHGvqtzzwNR0u9ZruVoUl9/Bot6RxIgTmToTrmb0O11I0mK1ZEQNUA3M/8BRP2UfRsqchpl/7cK8baAhBEJwIwiEH5bNbtvzyCSN0zCj3x5IhHFqZjRRe5P2egr6pj4U+zONpc8hPX8FwclHIPSJVAeu0iz8O8uIhUw+kCyLbc0to2hlvvppeXFqdgzRepcuKRMRwu2aEjUvNGR1vq5mgjh12aXqnof0l5MwEZqmp4udJI3Ku2kLOyu7MpRDfN4+dXBgucQRXN3hxbj4Aj0hEIIbQSD84ExW28wLBlm8xjfqLbdQ5ZepK6/TrLuNqYMflv3vJHPdzVpmNOF66Xx2jFq0kgg/lplmQBr5kOWfnmUdezpTvJJwveirKE7ttVzdcKv24EPMN3NTKp118jmDXxTBdzkGOPvZ1l5MHaRzyydJO0lm/rUreWp1ZV+GMsLXRRpUDfZS9WEQW6ebiSQUHdATAiG4EQTCQmBP0Ft7/abnOd+ZUBpHMKPVopXEN+cMJInHox++CpZey6q8Tusb5bhnQxpHCOLU/tHE5/v02AO9MMr/frql/V4dJ8bpzoTSOLVPpDpsrQa7Drq5W6mWzvv1LiYTUrsOilZqll036kwYd013VmOm7khU4nC2arDTnQmVgz1VA8qkzm9lSnqMEgPaQiAEN4JAWDjsx56Y2+zW+USp886kksap+XFqvyhiyAk9VmYvpPInSduEswbhCoIdk7f8CVE8QXVorL2LXQcLqwo2/mNqsk3nF0U4bAK8WDUzmph13pBhxNRBd6/K8ypz0GqNw50JpXFqbqxasILodUivNaEqgSRJ0kwkZawckjDERznYM28mVEb4qAaWTRobkPXwIp4fAJ0hEIIbQSAsHHaStMfcNAat1rCiX4eQ7DQijCeY0USz7bpjT8yv/1v4wMVvJ0n7E8Iy7I/M8svUgjd3oaA6NLixxJJr1K6DmO5UWE3g17+zglZr2DHqN5uAWhBH+EcTfQ/rr6dgn48SwGS1Lb+eFehoMiHV0954m+6FBs+24L/Gb0p7lTK9jmqQhzLcO++ug0mj5dpDi/D8AGgOgRDcCAJh4dGbbT9dzvKOJHix/02/odKIOE6zA/OmCp39+AvzJ7ted1Jln9jcWLVvFDH1TCZuYQuz7O0kSSZnWmedN/i82QSEcWpODBG2VntOhcG6JaY6DRbb0GOZkrjX8f71LNB4ovwydf0t2gNPcDWDN9hI0vDP6aTxIcpeDNVwv/8C4aDyCUP9MmIHWW1WnDFAcwiE4EZeai3ekQQ7TyAUxROMxeoBRxAI38tjtSXiz0yfyP8mEzKj1f5RxE+Xs7SYbFMU7NvvmaRxGs6/K17y4tTcWOLjXbpbqUiDRVH+15PNfQ7pfSJfTyaUxqmZ0WpJnGb1LSPVPQslpSrvplk+36f3iXq9VpM0jvCPUldYq/npchYmQkPu04XamXDfgqQxcmVfxus0OMRH2ZOR9uvnJtV9nC4ACITgRh6rLYxfCcYiddml6nLL/jvKLFUzfsjovF+PIno/9stJ5oZbddxYaoV9NS+W+GK/PhmL7BcVtdE67byBv4Jgx6j5cWpWDFFzo3bHfXRoFF0TOPHCVGOjllpgxi9KLYkjRv2ZmYV9PkpYNdpJ0r77ganxNm25ZWphnJoXq/aPJsadNrzSYegfODplSNKiSVav/ioh3Es5qLxyiI+yNyN5Ws3MK3swbxuARCAEt/JSa/1oq67RNl2LHW8czXfoqm/QTT+XhSJ6b7b1d4yV1mm9I9U+kUSz7brTWNaySNnTDNYOe/WcGKL8MnXIGs3Mi1jZtUiZbbaFV7NC1mi8I9W+UcQX+/VPMVi3pLItu57FX0H4Rql9IolPdunOJ5hRKOBC1v2zaT9/purLUPVnJA710/0Rh+cHABQEQnAr9rcd8AEKefjvmf7RmpA12qXXslCqRV/+lxLN9TZrGUuIwUczM7LQPVvU5W+02gYezfSNIj7aotuNrepKslda6+RzBo9lhHil5vhzVCW8rfGTZOa1g0kj+K/6MogN480ZCSgTAAoCIQDd2JU6a4/fMsecNFhs6JsqhvInSfsPl43jThqOPzeTpB3rihZ9FdxOtfQ4mPnjZezzUeKr8lqypd0efextIyZCQ35YTVn6sxuSZ9YxJTxAywfIhkAIQDN2O0na76VbnxNWpJHiqoNErU1JWLMsuIUttibwT7o1QYvyL/HMNvvtNKvGhGdbkL/WT5JWk8H07BoaP0BOCIQAAAAAAAA0hUAIAAAAAABAUwiEAAAAAAAANIVACAAAAAAAQFMIhAAAAAAAADSFQAgAAAAAAEBTCIQAAAAAAAA0hUAIAAAAAABAUwiEAAAAAAAANIVACAAAAAAAQFMIhAAAAAAAADSFQAgAAAAAAEBTCIQAAAAAAAA0hUAIAAAAAABAUwiEAAAAAFAU7AU8SuVXK2FfDGgAgRCg9CMIQqVS3rxx47eDB48dPXr86NHjR48eO3Lk9+PHL168mJiYqNPpUEpQimk1mvS0tPv//PPbgQPZTeDfVnDs+vXrKqVSo9GgoCAno9H46tWra9euHT927NiRI/+dNkeP/nbw4MMHD9LS0nDxLCg7SdpI0qJLN6e9ND66ZPhrn+HqQcO1g4ZrBw1XDxouHzD8fdj47Ko5XWnJ1NhK1FezkaQlU2NOVxqfXTX8fdhw+cDrr3b1oOHygayHF0zJTyxZOhvyILgfBEIoASwWs16nMxgyDa9l6vV6vV5nNBpROHlptdp7d++e/OPPrZu3LPp14fdzv/tm3PhRI0cO6Nev42effdG+wxcdOnzRocPn7Tt80aFjr+49Rn81auKECQu+nxcTFbV7567Ll/5SKZUoxuJlMpl0b5zz/8nMzNRoNGazGaXkQmJi4vlz5zZv3BS1PPLnH3/8Zvz48WPGDB08uEO7dtlN4IsOHT5v3/6LDh379+07auTIb8aNnzNz1vJly7Zt3frH7yfu3b2LK8yHZTQaMzMz/zurMzN1Oh0VqOz24r9DtlgsT588OX/23L49eyOXLf9h/vypkyZ/9eWI/n36/nvB/Pdo36FDu3bDwsPHjR4z+ZuJSxcvXhUXv3/vvst//ZWSkoKKzomKf+YMZdaD85l/7dIdi9Ts+Z7YMiUjblh69IC0XzqmzG2S8l2zlO+a/3s0S/2+RdrCTukxgzLihxNbJ2kP/k9/aoPh5lGT8q7VaiHdI01RHX1Wk8GkvGu4eVR/aoP24P+IrZMy4oenxwxKW9gp9fsWOb5Xs5TvmqX90j49sm/G2hHE1mmafT/oT23IunfKnK5EPgR3gEAIbi0xMfH0qVPxK+OWL10aGbUsJioqJioqctmy5UuXroiJOXXyJIqIYrPbUlNT7929e/jQ4cULF476ckT7Nm0rhlQox2B4lyvv5+nF9PHl+PnzWGw+i5N98Fhsjj+T6e3r6+nlwSjD9PGtXb1Gn5695s6Zs2/v3vv//JORno6yLXo3b9xct3btsiVLIpe9Puezj8ioZZHLlv36yy/nz51DJswrKTHxyuXLWzdv/m7u3G6du1QKrcDy9fMqV97Xw9Pf24ftSzUBNp/F4bOpVsDmsdgcP3+mj6+fp5dn2XI+Hp5Vwiq2bf3pqBEjI5cvP3vmzLOnTzMzM1G278xqtT55/GTv7t0xUVHLl/53SkcuW7Z08ZLV8fHJSUnF+PFMJtOrly9v3by5ccOGSd98061T53q16/h4eHqUKevr6cX0zr5y5j5t2L5+/l4+PuU9vMqWkwlFH9Wt17dX7wXz5x88cPDWzZspKSm0vcunwpJFn2FS/WO4d0p/Zp16y5S0X9onT6yYMKi8sjND2Y2h7MFQ9mIoezOUff89+uX4370Zyp4MZQ+GsgtD2YOROEqcMqdRRmy49tByw71TppSnVpvVXnzfzqJLM766nXntoPbAwoz4ISlzGiWOEmd/WmXPN79X9tGHoezFUPZgKLsylF0YSaNEqQs+UW+erD+/xfj0b4smpWR1h0Ipg0AIbspoNF67enXKxIkhigCmty/Tx5ft5//68PXzLldeIhCOGz0GBUWSpMViOX3q1Nw5cz5u0dLP05vt6yfgcCUCoVwsCZTJKwQF5+cIkisCpDKZSCzi8Tn+TI6ff8N69X9a8MNd9JMULYPB0LdXbyGH6+vpxfb1+++0f33y+/t7+zAYjO++/TYjIwPFlU2n0505fXrCuPFhwSFsXz+uP1PE48tF4gCpLEiuyGcrCA0MCpTJ5WKJRCDkszl+Xt5ivqBPj15rVq1+8fw5CvkdpKenH9i3r1vnLmK+wNfDk5XjlGb5+pVhMMKCQy5dvFhcHy8hIWHn9u0RQ4ZWDAnl+PlzmSwRjy8r4GkTJJMrJFKpUCTk8th+/hx/Zv06dadPnXrs2LGEhASbjS73+fbs4aAGbdaTy5rd36XMaZgwyEPVk6Hqw1D1Z6gGeajCvVXDfVXD2fk9IvxUQ3xUgz1VA8uq+jGU3RkJgz3TFnfRX9ppJpKLrG/tv69mzMx6elWzY07KtBoJ/RjKngxVP4ZqYFnVYE/VEB9VhF/+vte/X2pAGWVvhqo3I2mUhNgyJevRJYvJUOJmTkLpgEAI7ujkn38OCw8PCwpWSKQykVghkQbK5DkPEY8fFhwyddJkGhZOzrFVSqUyNjq6VfPmgTK5QixRSKRUCAwNDKKOfN7QZN8NU0egTE69lUwkDlYETP5m4qOHD3FaFoGsLMPSxYvDgkOEXF6AVJbrtKcOuVji6+H5y08/a7ValBhJklardef27Z0//zxYESAXS+RiSYBEGiRXvGcrCA0MCpDK5GKJQiJViCXVK1eZNWPGs2fPUOD5pFarV8fHf9amLVWMcrEk1ykdIJWx/fxrV69x7erVov94SUmJy5cubdWsOfUTQ328dzttcp4z1MVTIZEGSGVivuCjuvWWLlpcuivabrdn5yVT2kvtb78mT6yUONQvIdxLFe6lCvdSDvFWRvgqI1jUUYA0+DoTsv59rZ8y3Fs12FMV7pUQ7p0yqbL2t4VmXcbrlVoKJ0VlLwNj1qbpjq9Inds0YVD5hHDvf7+ajzLC7/X3KthXy/5Svqpwb9Vgz4Rwr8QIZsbSnln3z5XEBXWgpEMgBPdy/Pix8IGDGtarHxIQKOYLFGKJw99mmUhcuULY9ClTaVtQN65fnzh+QpOGjWpWqyYTicV8gdxJWb3bQb2VTCQWcnkVQ0KbN26y5H//S0tLwylaeGx22/59+6pVqiwVilx07QbJFUxv319++hmrWZAkefLPP7t17lK3Zi3q/lshkX7AVpDdZygVisR8QVhQcLtP2/z84096jCB1yW63R0dFderQsXrlKgFSmYQvDJDKHFYKn82pV6v29evXi/LjJSYmLpg3/7M2batWrCQXSyR8AfXxPuzFUyGRCrk8fy/vdp+2KeXVTZI2kjRcO6peMSRles3Er6WqQeWVA8sqB3tSObDACdDloYxgKSN8lAPLqQZ5JI4Upi5orTsRU3hdhXaSNCU9IjaMT5ndIHG0TDXER9mfoRzsReXAD/eNWMrBnsoBZRKG+qVMq0FsGG/OUCEQQlFCIAS3YDAYTp08OX/Ot+3btpMKRXwWWyYSu/iFlonElStUnD6VjoHw+rVrkcuW9ezaLTQwiOnjK+bxqS7BD3UHnPfmRioQsv38q1euMnnixJs3buB0LSTnz537rE1bHpMdIJW5HtzL9EEgJF+8eLF86dLP2rTlszkCDpeKgoXUCqiGIOLxBRxuzarVxo8Ze+/ePZyxeaWlpW3ZtHns6NF1a9UWcngCNsdZFMwZCG8UVSDU63R7du0a1H9AtcpVBGyOkMvL/6D6dzv8PL0b1qtfuivdZjUbruxNW9A6Idxb2YehHFCmMHKg41jYj6EaUCZ5UiVi4zfmDOUHTFBUB50p+Yn20KK0X9onjuAr+zCU/RnKCO/C/VKDyiv7MRJH8DKi+2c9uoRZhVBkEAihmFmt1ocPHkRHRX3evoOQy+MyWVRPl+tfWXoGQovFcurkyWHh4cGKAI6fv1QoKtRbmVwhhKqaL4cNu3L5Cs7bD+7Rw0ejRo5k+/q5voFGIKQ8fPBw5vQZVcMqMX188x8FsweCZh+BUlloQGD+kyQ1Xp3LZH05LOL8ufPusDammyAI4szp0/O++65xg4Z+nl4CDjc/WasoA2FCQkJ0ZGSrZs19ynuKePzCjoLUwfL1a9aocemuemuWTrNtRsJgT2VfhjK/k+g+XIgK91b2ZST0Zag3jTclP/1QDdJOklk3T2SsGJL4lVDZnaEcWK7Ivpoywlc5sKyqHyNtYSfDrePIhFA0EAihOKWlpu7bs6d3j54BUhnHn5n/Gzt6BsJHDx+2+7QNtezBWxc8+G9Oi1QeIJUpxBK5SCITialDLpIoxFJqSk/+x0pJBEIhl9fl8043rqOf8AObPWOmXCyRCkVvrQsEwpcvX/bq3kPE44u4PNcNIXtOl0wklgiEUqEoUCoLDQwKCQjMPgJlCjFfIBEI5SJxgET21ilkoYFBcrHEu7xHp46fn/zzT5y6ZrP56dOnSxYtbt64CXV1yn/WKrJAmKBSTRg3LkgewGOx8/nxsucEZs+BzL5+ykRianJpzkuow3OG7evXrHFpD4TmLM2+HxJH8JQDy+VrbGSErzLCRxnurQz3Ug72zH2EeynDvZURPvmfcKiM8FMNKq/qy1BvmmROf/VBZt/ZSTJtZl1lZ4ZyQFnVcL/8fS+W0+/1+kv55vNLvR5B2o2ROq+l4dYxzCeEIoBACMXDTpIXzp8fFj6Emv+mkEhD872kG20D4ZPHT9p+8im1+IHrmxhqyVBqbQPqbpg6pEIRdWT/f7LXP8jPuFPqVljA4Y4cPvzu3bs4jT+UVXFxjep/JGBz8pPMaR4IMzMzB/brHyRXSARC17Ete3kPKmmLefwKgcEtmzbr1b0HdfTu0bNH126ftPpYIZaI+QKpUCT/t0VQi4u4qAWFRMr08e3WqfOjR4/ofOpqtdr41XHNGzehlmZ9a/92sQTCWzdvdmz3mVwklgpF+XmURl0/qUtozhyYff18fQkVirIvodRVNHtNmjd6COkSCPnKQeUdrp6iimCpIvyUQ3xUQ7xV/y7HohpUPmGwR8Jgj4RB5f87BnskDPZ4vRhpuLcq3FtJLd3pOkRR/3aQR8IAhnrlULM29YMEwtSZ9ZTdGa7yWwRLRa0KM8Tnv+812FM1KNf38kgY7EmthfP6e0X45mcFGmW4l7InI3VBa6PqPgIhFDYEQigGFy9cGDdmTL1atYMVAVKhqKD3ELQNhE+fPv3s0zYuiitQJpcJxQI2l+njy/b1CwkIbN+23fSpU6dPnRq/cuWRw4cPHjhAHUcOH14VFzdl4qRRI0Y2bdiIz+b4e3kLuby3dtKGBgZJhSIRj//jggVZWVk4md/fjRs3Pm7eQsTlu546iEBIkiShVv/v55+pk9DFiRook0sEQn9vn0CpfEDfflHLI48dPfrkyRMNQWg1mkx9pj4HnVaXnp7+8OHDgwcOLJg3r0eXbnKxhMdiSwRC1+GB2tmlX+/e9Ezmer1++7ZtvXv0rFQhjOpAe2uKLpZAePnSpRZNmsrFErlI/NaPRy1NxPFn+nh4hgWHdGj72cjhX34/d+6G9ev379v328GD1PXztwMHDh86tOjXX2fPnDlx/ISWTZvJRGKmtw/Tx5fP5uRcFIoWQ0apQDjSQSBUDvFRDvJQ9mcoezOU3RiJw/yTp9VM+18H9Ybx6rVjtCdW6v/er/9r13/H3/u1J1aq145Rrx+fOr9lQriXsitD2YehHFhWOcTn7SuRDiibOJytXj3q/deYsZNk6uwGyp4M53/RVznIQ9mPoezFUPViJA7npMxukBEziNgyVbvvB/1fu/WXd+v/2qW/vFt/aYfuj5XE5inpUf1SptVKGFhe2ZOh7MdQDvZ86zBU5cByCYM90n/93IpOQihkCIRQpB4/ejT/++87tvssLDhEyOHmZ7ogAmG2p0+fftamba6uPOp5tkQgZPn4Mn18q1WuEjFk6P9+/nnv7t0XL1y4c/t2YkKCSqXU6XR2u936L7vdrtPplErli+cvrl+79vvx40sXL+nWubNMKOKx2AqxxHUm5PqzPqpbb3X8KpzS7+n5s2f9+/RRSKRSgTD/8zlpGwgPHzpUrVJliUDobNQflRX9PL3q1647a/qMo0eOPH70WKPR5Oduymqzpaak3P/nn8OHDk2dNKlWteo8JkvmPEVQy8xUCAr+ccEPdNur8/jRY1+P/Kph/QYBUhm1Rcq7XckLOxCeP3euY7vPhByu6zRIrajM8vWTCISftPp41owZ27dtO3/u3N07d58/e5aUlGQwGKxvstvtGenpCQkJr169unH9+tkzZ/bs3rPwf79+GRHRsF4DHw9Pf28fEY/v6+nVtGGj0n0y5OohfD1yckBZZU+GqjcjcbQsbWEnYssU3ak1hjt/GJ9dNan+MWeozGkvrcZMm91us1n/O+x2qzHTnPbKnJFgenU765/TulNr1GvHpMxppOrDUPZhKMO93zL7rh8jaXyI/vTG95x65ywQKiP8lIM8lH0Yyq6MxNHStEWdiR2z9Gc3GO6dMj6/bk55alEnWnTpVpst+0tZrRarMdOckWBKfmJ8ds1w84j26LLUX9onDPFR9mUoB3u8Zexof0biCK728GKr1UK3Cz4UJQRCKCKpKanbtm79asSICoFB1NP391kSEIGQuokJkMpEPD6PyapRpWrvHj2/nzt33dq1N2/c0Bc8KhiNxnPnzi3836+ft28v5gsEHK7rHhgek9W9S5enT5/i3H5nKSkp87/7nhqBlv/mQNtAeOP69QF9+7F8fJ11pQbK5BK+IFgRMHzo0C2bNiUlJr3z33r27OnqNfE9u3WnJh+66JOXCkW1qlW/c+cOHarAbrffvn07OjLq8/YdJHwhx8//PRd3LdRAePv27WHhQ5jevi6ePFL7Q/BY7JCAoM/bd1gwb97Rw0eUSuW7/UWDwXD79u2d23d8O3v2kEGD69SoyWAwalSpWrrPiv/mEA4oQy2SqRpQJml8cNqiLsS2Gfo/47MeXrCoE9+tg8tGkuaUZ4ZrB4ktU5On1VQN9lAOKONiGKdysJdqsGfqt40tevV7nepvBsLXUx8HlFH2ZSR+yU394RP1+q91J2KzHl206DMKNMeP2qUj6/4Z7cFfUhd8nDDUV9nP1WI8yggf1WCP5Ilhxpe30EkIhQeBEAqd0Zh1+/bt77+dW7lCGMvH1/Usjv/m8UtkIc5X/6NzIMze3Jmax1KnRs1OHTv+uOCHWzdvfpC/8vuxYwP79QsLDpHwBS5u9URcXvXKVX6cPx9n+LuxWq3r164LCwmV5WMkGwIhSZKLFy7ksdjObu5D5QqZSFy9cpVvxo1PTkr6IH/x77//Dh84KCw4xEWikInEAg53+dKlGo2mdJe/RqM5euTI4IEDBRwun82RuxxHkJ21XCfGwguEqSkp48eMlYslMudPW6j+ZLlY0qxxk2/GTzh75swH/AAvXrxYunhx6xYte3TtWsovZaYszd4fEob4KnsxEoazk6dUS1/YSfvbr6bERx9qhUwqRGVe2Jr2U9uEL7nKgWVdZcIBZRIGlsu8/pvt/f4iFQiVESyqV1A1sHziKHHq3CbExolZ98++56hUKkMa7p1Kj+ybOFqmHFBWGeHr9BsN8lD1ZWgO/GzJJEr3uQTFCIEQCldKcnJsdHSDOnWZ3j4yocj1yiXU6EeFRBoSEFgxJJS693X439N5DqFCIpUIhDKROFgR8EnLVitiYrVa7Yf9QyaTae7sOQFSmYueq0CZXMDmNGvcBCf5u/ntwMFPW7UWcLgOT3IXC13SMxBeuXKlT89ebF8/Z5cOiUBYJazinFmzPuzf1el0Y74eTQ0pdBxEA4NkInG7T9tc/fvvUlz+N2/cGDPq6wpBwYJ/o6CLlEUNXlBIpGHBIVXCKgY4z4SFFwhnz5xVJayiiMd38TnlIolCIm3ftt35c+cKqdz0ev3t27dLd9u0GvXand+qhrOTRvAzVgzJunvS+m/g+WCbQNhfv5Up+Yl63VfUGi3OMqEywls12DP918/NSY/f/S9SgbAHQxXurRrsmTDUN3liJc3eBdR+8a+P90uE1KstRr328JKEIb6qQR7Ov5GfapBHypyPjI//Kt3nEhQjBEIoRElJSR83bxESECgTiqlH7K7ToEIiFfH4MpF41IiRy5cu/erLEc4ezNN0ldEnT9p8/ImQy/P19Grc4KPoyEi9Xl9Ifys5KWn2zJlMbx9ns4NCA4OEXF7VipVOnzqFU72g/vnnn/CBg3gstrPiDZIrnD0NoWcgjFy2rHb1GhK+wNlaIEIOd+zXoz9U32CuttCjazdqzVJnFy6Wr9+adatLZclbrJbfDh5s3OAjEY8vF0tcb1RDPdSTicRcJqt29RqLFy7csW17zkVWiiYQ7tm9u36dukKXu5KI+YKQgMCJEyYkFcI5k1Op36zSmknoD/5Pd+AXo/Ke7UNHwdyFSZKmtJfq9eMSwr2VThKUMoKlGuyZONQ36z3ik50kU2fWVXZmqPoxksbIiR2zzUSyrRC+l50kLbp0YsvUhAiWcmB5lbNvFO6l6sXQn9uEUaNQSBAIoRApXyn5bA6PyQp82/KJCrGE7esn4HB7du22Y/v2jIyMe3fvTpwwwdnsHXoGwvv/3G/yUSOpQDR18uS/Ll0q7HUs/rp46fPP2rsY0CgTiioEBf8wfwGdd0h/B8asrInjJ4QGBol5DuJNoFQmYHPbtP6kRZOmDhMIPQPhgH79uEyWw1xBPZto36btkUOHCumv/37sWIsmTTn+TGd9tn5e3nPnfJuSklL6St5kMsVGx4QGBnKZrLcsQSxXSARCLpMVoggcN3oM9ajo0cOHfDbH4ZlcSIFQpVK1b9NWLhI7G9QaGhgk5gsCZPIF8+anpqbiivSe7Ha7Nf2VVZdeNFnFTpKmlKepcxurhvgoI3wcx6ch3qreDN2pNbb3+CsJE0JedmNkRPbNun/GUpjfzk6SZnVi6reNVIM9HX6j1+vl9GAQW6dZdGk45aAwIBBCIUpQqaj1Y1z3CrL9/GUicYe27Rb979fLl14/0nv+7NmEceOcDfihZyB89uzZN+PGRy5b9uL5iyL4cxaLZeuWLQI2RyYSOxs1GiiTf/5Z++TkZJzt+RcbHV27eg2Hy/YoJFKpUNS7Z8+ff/yxT8+eYkcdYjQMhC9fvmjb+hN/bx9n+w3yWeylixdnZmYW3megJqQ5W8+Gz+b079P30sWLpa/wzWbTsiVLqoRVdH0llwiEHD//sOCQ8IEDt27Z8uTJE+rlT5884fgznWWzD89dEAkAAF2SSURBVB4INRrNkkWLXUwdpIb4hgQEzv9+XmJiIi5HJZGNJHXHYpLGBij7M5zGpz4M9cZvzKnP3+1P2EmSiB2sWT/OpLpXBPvC20hSe2hR0vhgZ99INZyt7MtI+1/HrPtnSIBCgEAIhSgxIUHA4UqFIoe/ygFSmZjHlwqErZo1nzB23PFjx3O+9uGDB2NGjRJxEQj/o9Vqr1y5UqQ1mJhYo0o1p8t4BAbJROIKgUGvXr7E2Z5P586ea1T/I2r7TYdLVtarVfvc2bO/Hz/er3cfAYeLQEiS5B8nTrRo2pTHYjt7qFS1YqXCmwZGWb92XbPGTcROxqyK+YJWzZrv2rmz9BW+2WxevnRp1YqVHAbC0MAguUjMY7KqhFXs1KHjD/PnX7t2NefLHz54yPbzL7JAeOb06QZ16sqEYoeDRUMDg6QCYYBUNnXy5IyMDFyOSig7SZozidTvmyv7MpyOGu3PSPu1k/HRpXf+E6YH5yxEUtF9I21a2o9tlL0ZTmcSDiibPK1m5rlNOAGgMCAQQiFyGAizJ5nIxZKqFSt16tDx1J9/5n3tg/v3R1OBUI5AWGz0ev3XI0dSPVcO7+ekQhGXyXr48CHKKj8eP3rUu0dPmaPBbNQwtqoVK/0wbz5Jkpf/utS1Uyc+m4NASJLkytjY+rXrUJv+OQyEvXv0fPigcE/C69evDxowgOvPctgQ5GJJ9cpVVsXFl77Ct1CBsFLuQEg91JOJxAFSWY0qVWdMnfb40aO8L3/w4AHb169oAmFqaur8776nZj47qyaZSPxFh4502zey9LGTZMaKIaohPg53JlRGsFQDy6bObWK4dbwEfSl1/HBVf4bTUaODPZNGS3XHo1D7UBgQCKEQ5Q2E1D2ERCAU8fhtWn+yc8cOZ69FIHQHRqNx8cKFlSuEOezmpW6weCz20SNHUFZvpdVqlyxaJOTyHPa4ykRimVA0qF9/i8VCkuSpP//s/PkXfBYCIUmS5JSJk6qEVXR4ElKZZPaMGQkqVaF+hrTU1IkTJvh7+TgbPu1ZttysGTNKX+E7C4RysUTA4QYrAsIHDX782OlyjkUZCPfs3tOofgOxk/1yguQKjp//J60+vn3rFi5HJZ2dJDX7FiSODVAOKu84EA4qn/xNhcwLO0rQl9Lu/zHxa4lykOOt6pVDfFR9GZpdM1H7UBgQCKEQ5QqEgTK5iMf39fD87NM2G9atV6lUVqvV2WsRCN3EmdOna1Wr7rBzhuo5FLA5O7ZvN5vNKCvXNm/aVL1yFbGjabGBMrl3eY9unbvcu3uX+o9P/P57588/RyCkjIgYTm0G6PCRhFws2bFtm8lkKuyPsWTRIq9y5Z3NoyvPKDNj2rTSV/i5AmH2Tu5CDndYePiZ06ddj70sskBoMBimTprM9Wc5W7lXzBfUrFpt4f9+xbWoFLCTpP7C1uRZ9R1OulNGsFSDPJInhGaeL0mBMPPK3pS5TZ1PjPRTdmUQG8aj9qEwIBBCIaICoUQgDJIrhFyegM1tWK/+/O++P3/u3FvzAwKhm7hx/Xrt6jWEjiazvQ6EHO62rVuL4Ha8RDt65GiHdp9x/Zl5t+IMDQzis9hNGzXetnVr9n9/4vhxBMJsw4cOo7Kfg0AoEstE4sOHDhXB4v4rY2M9ypR1tpOBZ5mys6aXwh7C7DmEYr6Aau9ivqBTx89jo2OePn361pcXWSA89Ntv7T751OFKsNTKQ2xfv1EjRiaoEnA5KgXsJJl5ZV/Kt42V/ZwHwm8qZF4qSYHQcOv31B8+cfiNXn+vLgz1+nGofSgMCIRQiBISEnhMNsfPn+PPrBJWccigwRvXb9Dn7y4WgdBNXP3771rVqgtcBsLtW7eih9CF5KTkwQMGirj8vINFQwODqD6uxYsW5dxVEoEwJxeBUCYSS4WiQ7/9ZrPZCvtjREdGuQiE5RllZkybXvoKnwqEFUNDfT08JQJh04aNpkyadOL343Z7vgq8yALhhLHjguQKh3+IWgS1VrXq27dtw+WodMhXIBwfnHmuJNW44cbR1PkfK/u6DISbx6P2oTAgEEIhevnypY+Hp0wkblS/wfdz5z5/XoAFoBEI3cS1q1epPRJcBMKtW7agh9AZs9k8Z8bMKmEVRVyewwVRxHzBwP4DHr25MM/vCIQ5uB4yKhOJ9+7ZQ829LFRRy5d7OgmEQXKFd3mPObNmlb7CN5lMC//3v2BFgEIi7da5y7q1awvUFVs0gTApKal1y1b+Xt5ONyZhc2ZMm/bi+XP3LWgoiLcPGR1YLmVqdcNf+0rQlzLcPJa6oLWrHsLODPX6sah9KAwIhFCInjx+wmOxR3054p9//inoaxEI3cSVy5dr16ghzBNmsm/H+Sz2ju3bzWYEQgfsdvvBAweqVqzkcNfBQJlcIhDWqFL1wf37uV6IQJjTlImTKldwvKiMQiKVi8QxUVEajaawP8bC//3q7WQOoUIiVUiky5YsLX2Fb8jM/PWXXxrWq7/o11/foZCLJhBu27b1o7r1hByes3VoAyTSE7//jitSqWEnSc3+eUljA5QDyznbdiI9sq/x+Y2S1NZuHEmd/7GrzRUxhxAKDQIhFCKTyXT86LH09PR3eC0CoZvUYGx0tIs9qWUiMY/Fvp8nzwDl1s2bjeo3cLjrYIWgYB6LXblC2IH9+/O+EIEwpxUxsfVq13a4slGAVKaQSKdNnlLYq4xm6vUzp89w2AdVIShYIhA2rFd/86ZSuEWYxWK5dvXqy5cv360PtmgC4eCBA0MCAh3+lUCZXC6W9Oza7RF2xylF7CSpXjc24UuuMtzLYXZS9WGoN4wxJz8tQV9Kd3hx0rgghxFXNZytHOyV+LVEd2w5ah8KAwIhFK53HseFQOgODAbD7JkzK4aEykRiZxvTS4WiFy9eoKzyevr06aiRX4m4fIVEmrd7UMjlVa4QNmv6DIvFwfRLBMKcTvz+e/Mmrjamb9Gk6a2bNwv1M1y6eLFvz148JstZsOnds+f5c+dKX+FbrVb9e5xpRRAI09LSalevKXK0fi+1V6pcJN6yaRP2Hiw17CRpI8m0nz9T9mMoI/wcZKdwb2V3hu7kaluJ+l7EpkkJQ/0cRlzVcLZyYLnkSZX0p9fiBIDCgEAIbgqB0B1oNZpe3XuEKAIcdnBR9+L1atVWKVUoq1yMWVnLly4NVgTIROK8C8koxBKJQDh0cLizSU0IhDklJyd/1qaNsxliAVKZhC8o7N652KjoujVrOewqD5TJfT29vps7Ny09DWd+LoUdCO12+4kTJ4LkCocdyNRyMpUrhL3EQ6tSxE6SWQ/OJU+uouzjZAJhuFfiMP+sB+dL0Deyk2RG9ABlX4YywtdxIOzPSPm2keHyfpwAUBgQCMFNIRC6g0cPH1arVNnhRurUvKlgRcDQ8PB3GxVcum3furVls2Y8Fjv0zTVIQgODguQKHovd9pNPfzt40NnLEQhzCR84iOPPDJTJHdz0y4N4LPbA/v2vXr1aeB/gqy+/FPH4eT8A9ViEz+ZgBUuHCjsQqjMyFsyb52x90QCpLEim6Nzxc3QPliZWmzVjRXjCl1zlYE+H3YOqwZ7pv35hTn5SUr6RnSRNaS9Sv2+u7OV8E8LejIzogaZXd3ACQGFAIAQ3hUBY7LRabWx0jJgvcBYIJXxBpdAK69etwxKjudz/55/unbv4eXk7zA9SoShIrohbscLFOyAQ5rJ44aJa1apL+EJnixsFSKQ/LvihkP761i1bGn/UkM/mOFsZ6LM2ba9fu4YzP6/CDoSvXr3q3rlLoEzu8GGBRCCsXrnK4l8XFsGuJFA0bCSZ9eRy4jCmsj9DGcHK2z2oHFg+Yaif7sQqq8lQgr6UZt8PiWMDlAPKOu7zHOKj7MnQHlyE8xgKCQIhuCkEwmJ388aN9m3a5h3xmB1seCx29cpVnj17hrLKZcSwiECZPO+qmNSugzwm68cFP6SkpLh4BwTCXC5fvty7R0+2r5/DXBEaGCTmC+rUrLVsyZIP/qfT0tI++7SNw5WBqBGJQg53w7p1WVlZOPPzKuxA+M+9eyGKQGcPrQQcbv06df784w9UROlgJ0nji1upc5uoBnsqh3g76x5Mnd3Aos8oQV/KYjGlzm6gGljO4XhRZQRLNdgrYahv5vXfcA5AIUEgBDeFQFi8rFZLTFSURCAMkMqcjRdVSKQ9unZDWeVkt9uXL1lao0pVMV+Qt9yoPej79uz18MED1++DQJjXol9/5TFZzm79A6VymVBUr1btBfPmf8A/qlarx349OlgRIBOK8v5dmVAUIJWFDxhY2GucllyFHQgPHzrE8Wc6XLepQlAwy9evaaPGWq0WFVEKUFMH035smzDYSzXEJ2/3oGo4W9mLkTRalnn9UAnqSbParLo/ViaOFCgHlnX8pSJ8VAPLpf3aCeNFofAgEIKbQiAsXnv37Pm4eQuHY+Sog8tkNaxXf/PGjSirnC7/9VfDevUd9iYFyRVSoah+nbp//H7ire+DQJjXtavX+vXuzfT2dbjEUYWg4ACJVMwXVAmr+N2cb/++cuX9/2JiYuJ3386l+nXzNoQAqUzMFzRv3OT8uRKzdkXRK9RAmJWVtTp+Fcef6fCUCJTJxXxBr+498vluNrtNpVT+feXKhfPnd+7YsW3Llp07duzasXPbjh3btm49duTopYsX7927m5CQgAGoRcxOklabLfPv/Wk/t1cNKq8c5OE4OPVjJI7gE5smWUnSXnK+WtaDC8nTa6nCvZQRPg67B5WDPBIGldef32K1WkrI14KSB4EQ3BQCYTG6dfNWz27d2b5+DqflULfCfDYnfOAggyETxZXt8aNHX4/8SsTjyx3t0sFncypXCPvlp5/y81YIhA4dOXSoZrVqYr7AWSYMksnFfAGPyerXp8+WzZsfPnz4zquJPH/27Ptv5wbK5JI8nb3ZKwPVrl6jVG5G/wEVaiBMTkpaMG++gM1xeKWSicRVwirOnDbdxTsYjcanT57+denS7l274las/HbW7EH9B/Tq1qNR/Qb1atWuX6dugzp169euW792nTatP+nbq9fXI0d+9+23q+Li/jhx4uaNm69evcIM6kJlJ0mryWB8dlV7LCp5em1Vf4ZykIfK8dTBsgmDPTNWhJtTnpagNGhS3suIGazqw3C4QM6/g2C9UmfVN6sTcT5A4UEgBDeFQFhcEhMTB/brr5DIHO49SN0NC9icj+rVX7t6DYorm0ajWfi/X0U8vsPeJLlYIuBw+/Xuk8/RawiEDul0ushlyyqFVpAIhM6eVrxe9pPFFnJ5Hdq227xp05MnT3Q6ndlsttvzdaNoMpkuXbw4qF9/qVAkEQjzpsFAmVzE44coAqZPmZKZiWcirhRqILx7586Xw4Y524FQzOM3qv/RyphYh6/NMhgeP368dfPmIQMHVw4NY/n4+nt5c/yZAjZHxONLBEKpUCQTiWUisUwokgpFYr5AyOXxWWy2n7+/tw+fxW7c4KNxo8fs3bNHo9G88467kIv9320GrTar1WIyJj3WHo9KmVFb1Y+h7MdQDvFxEAUj/Kg+tLT/fZ71z5kS9DXN6kRi82RVf4ZqsJeTwaIs5YAyiV+JdMej0T0IhQqBENwUAmGxSEpK6t6la6BM7mItGYVY4uvpNWPqNL1ejxLLtmHTphpVqlLLYOYquiC5guvP7NKp0+lTp/L5bgiEzhizsqZNnlIxJFTE5QW9uaVHrh48hURKTdqUiyXt27abNX3G7l27njx+7Pr9nz59Omv6jGqVKot4/Lwz015veygQinn8n3/8kZ5VUCCFGgjPnD7d7pNP84b27Ddv3bLlnt278r7w+LFjPbt1Dw0IlApFcrFEIZYESGWBMnmQXBEaGOT6CJIrAmVyhUSqEEtlIrFcLKlTo+YvP/308iW2OnTAXsDDSpKmhAeGO39qDvyc9lO7xK+ECYM8VIM9VeHeygiWajgr92orw31VA8slDCyb9kt747NrJahv0KzPyFg5LGFgOdUgD9VwtsphIBzsqRpUPnX+x5YsXUn5alBCIRCCm0IgLHqPHz/u17uPizRIDRbl+DP79+37QeZolRrnzpzp0aUrn80JlMnzRgiJQFipQtjK2BX5f0MEQhf0Ot3sGTMrhVRwtjPhf7FQppCLxGK+IFAmr1whrHb1Go3qN2jepGnzxk0ihgydM2v24l8X7tuz58KF80ql8tTJkxPHT2hQt16lkApSoShvGgySKyR8gYDNafxRw3179mJru/wo1ED4x4kTzRs3cXa94vgzu3fpevPGjf/OHL1+86ZNvbr3qFe7NjUYWCYSU23W2RXP2alFHQESGdWNXLlCWLPGTebO+fbhwweo9JzML+4S0f2JVSOINaOcHmu/JtaOTv+lfeqseslTqiV/E5Y0PiTxa0nCMH/VIA/lYA9lhK/jDrTBHqq+jKSRAs2eeaaUZyUqDaozovolDGO+XkjG0bdTDfdVdmekzGqQ9eQK0iAUNgRCcFMIhEXs0qVLI4Z/KRdLXKdBqVDUsmkzLOOeU1aWYeTwLxUSqcN9JhQSKceP+cP8Benp6fl/TwRC1xISEqKWRzZt1MirbDlnHUS5BnnKRGIRj8+jhvx5+QTJFdUrV6lXq/YnLVt90aHDgL79Orb7rFJIBbafv9TRgqJSoYjjzwwNDBo+dNipkydx2udToQbCXTt3higCnS4x6uPbv09fpVJJ/cd//vHn5G8mNmnYSMwXCDhcZ8vVFvSg+gwlfCGXyaocFjZ4wMAd27aj3v+7PN7541VfRuJwduIIfuJIZ4cg8SuhalB5ZW+GshdD2Zeh7M9QDiynHObtdCDlIA9lT0bCwHJpP7XJvLjNok0rKZHJRpLGl7czVg5LjGAqB5RROo6Cr3eiT55STffnGlvJWSMHSi4EQnBTCIRFxmw2/XbgQJ+evRQSqdT5vXWgVCbm8auEVVwVF4++kZyili+vWrESl8lyuGG6kMvr8sUXjx49KtB7IhC+lUaj2bljR7/efSqFVuCzOA73+XBxBEhlMpFYzBcI2Fwuk8X28+ezOQ7nzVKbHFarVLl7l66LFy7M2eMEb1WogXBVXJyvh2febnnq8PfyHjdmDEmSycnJ69eu69Sho1Qo4jrfo+I9Y2GoXCHk8gQcbvMmTbdu3oy9LiiG27+/6MRQ9mcoB3soB3s6P7ycdQPmXWRF2Z+ROIKb+n1zYtPErH9O20tOXrJazYZbx9OX900YWE45sJyrNNi/TOIwpmb/j1YzNjiFooBACG4KgbBoaDSarZs3N23YiOvPdNE3GCiTSwTCqhUrTZ44CWkwp+vXrleuECbgcPPOZ6P2pq9dvcbJP/8s6NsiEOZTUlLSjGnTW7dsVbVS5WBFQJCTbPCe/T/VKlX+Ztz4O7dvo8ALqlAD4YqY2PKMMs6mkrJ8/aZOnpyenj5n1uyw4BA+m+PsY+ScIhgglQVIZNQ+qwqJlNqINf9jShUSqZDLCw0Mily6LC01FSeA4e6fym4MZbj3W5Nefg5lhK9qOCd5Vj31xm+ynl0rKbt/vJ4eabPoL25LndtE2YOhHOzpPA36qgZ5JEYw1atGmBIf4hSCooFACG4KgbAIpKel/TB/frAiQMjhBjrZgJ66IRbzBRVDQqdNQYG/4fnz57179FSIpQ5XHxHzBdUrV1n868J32LUMgbBAElSqX376qWnDxtQd/wfMhKGBQWHBIWO++vra1Wso53dQqIEwfuVKz7LlnAVCCV/Q7pNPx476WioUSYUiasGYvDkwSK4IlMoCJNIAqSz7yE6D1P+m/m9+ZhtS45OpZYcW/vK/TL2eJMl8Lm9bKhnu/qns7mB10HcMhAPLJ82qn3XvJPXmJaJvkPqQFrNJs/u7pLEBqn6u4rEywk81sFzCMH/1ymFmTQouIFBkEAjBTSEQFraLFy726NI1NDBIKhQFOu9XCZTJhVxekDzgpx9+xI5bOWk0mmVLllCrFDrcZyJAKhvYf4BarX6HN0cgLKgbN65P+mZivVq1P3ggDFYEVK4QVq1y5d49eu7asYPON/fvoPACoU6nnTltuq+Hl+swXyWsIvW8Ju8SQXKxRMTjc/2ZTG8fAZtbr1adbp27jBoxcu6cOd99++13c779fu7cqZMmd/78i0b1G/DZHD8vbz6bQ10w39qrLOTy6taqHbdiRWmr0QL6wIEwgqWKYCaOD06d/7Fm7wLjqzvu30loJ0lT0uO0/7d313FS1fsfx4ftnO7apFtKWrqRFIEtWEQQQUoEFVFC2gJRELHARhEB6TSQ9Iq0kjPbXSxb8/tjkN+67Cy1s7twXs/Hedw/7r1MfOfM7Hmf7/f7+SzqFfuUzBrhbokqY7LU1zJUFBvtn7oqOj8rlR8aVCQCIaooAqHzJCcnv7tsWaf2jxm1Om2ZO6+MWp1SKmvaqPGyd95JSkpi6Ir7YcOGpo0aq2XyWwcwwGD0dvPo3rnLwd9+u7cHJxDeud27dk5/ftrAfv1bNmtePSjYUSC0z/bcbT3J/29sKJGatLrmTZpGhIVt3rSJYb9DzguEiYmJUydP9vX0KvuzCzKZi3/iweYAg0arkEg9XFxDAgKfGDhozuzZX3/11YH9+//835/nz5+/euVqYkJCQkJCQnx8YmJibEzMubPnTvz556Hff1+3du34ceOaNX7E18NTKZWZdWVVuDXp9Gq5okvHTt+u/07IJ0D5Lhm1jpJYor0tYS7WcPfYZ40JLzVJXf1UzsndVbbsSn5Waub2dxNfbRUT6WUJc7VElxGMfSyDRXHPGtO/eSUvxUoaRAUjEKKKIhA6yR/Hjs+a+Uq9WrUlvn4Gx5sGQwICtUqVSipr/WjLzz75NCcnh6Er7vfff39y8BP2tge3rkNTSWUN69Z7f8WKe358AuEdnczHjy94fX7fXr30ao3Uz99ebrTE1b9Rq1NJZX6eXkEmc/WgYKmvn5+nl8TXTy6WKKUyjUJp0GjNd7bz0KjV2cvPdO/Sdfk7yy5dvMgX4bacFwhTkpNnvPCCX5mBsMQXU6dU23vDdO3YaeqkyWtWf/j7wYOJd7PT7/y5c+u//fblF19q0aSpRq7UKJRlPKNerdGp1IP6D7irCsMPmZz/bbvUU2QZIrIME1mGV7vNEe5mifS0jPQuu7qMJVpsifa2DHexDBTFRHgkvt4pY9Pi6/EXqk6Isi8TvX71r/RvZsZPrm4ZKLKEuzveNCi2RHpaBorip9bK+HFRXmosaRAVj0CIKopAWO6ys7O3b90WMWy4RqFUiCVlNPUONgeopHKjVte7R4+P13zE0JWQn58/buxYjUJ5axkeewLRKpRzXpudeB8lJQiEZUtNSdmyeXPY0KH+Xt5yf0mJVbv2c9ig0WoUSrNO37xJk57duk2bMvXVma+EDR36eO8+XTp0bNeq9aNNmzWu36BGcIi9EIhKJtep1LedRTRqdXJ/sUmnf+7Z8UcOHy4oKOAbUYaqEAjt30q1XBESENilY6dpU6Zu3LDhHnb2Fvfh6tX9+vQNCQgsdY3AzUMplVUPCl6xfPl9Pt2D69rpfZaRfnHPGuOeC4x7LqisY1JI7FhNzChxTLTY8qTIMlRkCXOxRHiUXX3UEuFhGSKKGSZK/WjMtXO/FVSBcS6y2Qry866d3pv81oCYKG/LkyJLtE9Z4TbczTq8Wvy0upm7PszPzeZHA5WCQIgqikBYvpISE5e/806DOnXVMnkZDbhudmzTKJTDhjxJhf1Svb9iRZOGjZQS6a1p0KTTa5WqXt17/HF/Q0cgLENycvL0adNqBIfI/PyNtyQN+zls38NZt2atQf36f/Xll9eu/ad0++VLl3755Zfvv/tu2dtvTxj3bI8uXRvUqRsaGGTf/WX/t2XEwgCDUadSKyXSrp06bfzhB74RZajcQHjz1oBBo60VWn3c2LHH77WAza3OnTv37DPjdCp12fWZdSr1I/UbxsbECPMEyE+6mrlxYea25bc/tq9KWzs55a2ByUt6x41Rxz4lj31KFhPtb43ytkR4WKK9LdHiUpJhtNg6ytca7m4dLEqY2Sz7928rcfnojfoxORlZBz6Ln2C2DhVZItzLSrPRPtYIj5hIr4QX6l+7cFSg9wxQNRAIUUURCMvRb7/9NmTQYI1cYVCXtTou2Bxg0uo1ckWQ0bx44cIUAS9zKsOFf/5p0aSpUiK9tbBEsDnA3shx185d9/ksBEJHkpOThz4xJMgUoFOqTLeUxr05FxRkMo8ZPfq3O97DeS0398SJEx+sXBk2dFiQyWxfTWpyUHr3/xejyuRNGzXe9OOPfC8cqcRAeKNlvFKllit69+h5YP/+cn93V69enTXzFaVE6uguW7A5QK/W6NWa1R98kJWVJcAToMhmKywqLLTZ7vwosNkKbLa8tLicP7enffNywivNrUNE1qEia7i7dZSPtZR8JbavurQOEyVMq5e5872KD4RFRTfSYO7FYynLnowd6W8Nd7NGlbX21RLlbRkqio0Wp74flZeZ/AB1U8RDiUCIKopAWC6KiooWLVjYqf1jJp1eJZMH31J4vfiFi1quUEpkndo/tuG777OzWbhSivj4+OFPPmnQaHUq9a1jaO8/9vabb97/lksCYakuXbo0MmpEgMFUaqXHYHOAWiaXiyVDBg7auOGHhIS7Ltqek5MTHxd39szZD1au6tKxo0IilYslJscdWfRqjVquaNG02T1XD3roVWIgtJf6rFer9sL5C86fc1Y/t3Nnzw4fMtSo1Tl6j2a9Qa/SDB4w8OyZs5wPd8iejgpttvyc9OuJl3JO7kn9bFLcOL11iKisfu4RHtYwl4TpDbIOrCus8BdcYLNl7liR8FKTmGh/y3AX+5Sm42Wi7pYBooTpDTK3vZefnUYURKUjEKKKIhDevyuXL8+dPbt+7TpKqazUAFOiiGKN4JAxo5++hy7qApGdnf3hBx8YNNpSV4jZ//t+vfuUSzlWAuGtTp8+PX7cs0atTqdS3zr+Zr1BKZXVDAl9cfqMw4cO3edzZWVl/X7w4JJFi3t2666WK8pYE2jQaKV+/oMHDDh96hTfkVtVYiBUSeWd2j/2+dp1ycnOrZB8+NChxvUbaBxUbLb/wJr1hm1bt3I+3Jsimy0v6Ur24e9TVkXEPq20DHO4K88S7mYNc014uVnulRNFFfryLqdvmBc/pablSZEl3K2sicFIL8swUUyEZ/Jbg7KPbCjIFeK8MaogAiGqKALhfTp8+PCkCRP0KrVariija1awOUCrUGoVqtYtHn39tddOnz7N0Dmyd8+eDm3baxXKW8czwGBUSmXtW7f5bv36cnkuAmEJMVbr85OnaJWqUhul2Me/cf0G8+fNi4+LK68nzc/P/2nLlqjwCPvWUIeX+xqtv5f3vDlz0tLS+JqU4Ny2E5PKajvh6+E1ZdKkinmbE8ePrx4U7Oi+m1ln8Hb3WLpkSYm9rLgrRTbb9cRLaZ9Pjh2rtjpu4WAJc7UOE6V+OCYvpSL2bRbabLn/HEr9bFLsaLllqMhhm8FosSVabAlzsQ53iXsuMHXNM7mWU2waRNVBIEQVRSC8ZwUFBdu3bevdo4enq1sZMxs3K6CEBAT26NL1qy+/ZAtDGS5fujRx/ARfTy+TTl/qatuaIaFLFy0ur6cjEJYwd/acmiGhKpm81DNZo1BWDwpeunixM546NibmiYEDTTp9qTOTN0+AhnXrrVm9mm9KCc4LhFlZWS9Nn+Hj7uEoEHq5ur84fXrFvM0/jh/v3KGDzF/s6AxRiCUjo6L+KL+SNoKVn5Oe9uXU2DEqa4SHJdq39Ob14e4xQ0VZv37pvMRl3zRYaLPlnNyTOLud9UmRZbhLqa/n3z4ZPtYw15gon4QXG2dsWlzAn1tUMQRCVFEEwns2f968hnXrqaQyo1ZXdt9klUxu1hvmzJyZkBDPuJXt5RdfUkllerWm1JH09/aZOnmyvc9EUVE5/KEnEBZ3+NChTu0fk/r539orxV5DUurnv3D+gsyMDCe9gNiYmPBhw9VyRRn7xPy8vCPDwq1WK1+W4pwXCG022wcrV3m4uDrqoOPj7jH26TEV9k6fGhmtEEtKXY5hX4jRrnUbatKWi4LCgrTPp8WOUZW+nzBabI32sQ4VJS97MvfS/2w2m62onMPXzTSYuX153Di9NczFGulZxo5Ba5S3Ncw1JsI9dfXT12PP23dIFpEIUZUQCFFFEQjvQXp6+pJFixvUqatRKMtIgwEGo0ahVEikXTt22rtnT5bg+5vf1sdrPmrZrLlCLC1165pKKu/Vrfu+vXvL8RkJhMVFhoXby/ffOhomrV6nUo+Mijp75oxTX8PJkyejwsP9PL0cLcBWSKRtW7Za++lnfF+Kc2ogfH/Fe26iao4CoZ+Xd8TwsIT4CrrbtWL5u00aNravuSj1tkWwOWDV+ys5Je5fkc2Wl5GYNL+rNczFEuVd+oxchHvsCJ/Mre84o3qnvYRMxsYF8ZNCrMOrWRynwRtLWIeK4qfUyDr4df71HGIgqiYCIaooAuHdOn/u3HPjJzSqV1+rVJWRBk06vcTHt16t2s9PnnL/tTeEIDY29vHefbSKUkbVvn+selDwF+s+z8/PL8cn3bljR99evRSSsgKhQKrYHz16tF6t2qW2/7bX+awZEvr7wYMV8Eq+/vLLxvUbOFqGba92EzE8jK9McU4NhKtXfeDj4emolY7Yx3foE09c+Oefinmn+/ftG/D443KxxOEcsqf34oULOSXKRZHNlrl7Tfy0epahotJimNg6yscySJSyckReekJReT91flZq2mcT48abrGFulkivMtoMWgaLYqK8Uz6MvvbXLnYMoiojEKKKIhDelb///nvyxIk6ldq+CtTRMlG9SiP19evQrv3bb7559epVxu22cq7lzH1ttr2lRKkVJgONplmvvlbutSL27d3bv29fR4FQ7OP71htv5OXlPfTjn5qaOm3qVLPecOtiXfv4B5nMIyMjK6ZWR0xMzMyXXpb5ix19xfy8vB9t1jw+ngXY/8+pgXD9N9/aa3iWGghl/uK+vXpXWEeQf/75Z9SIkWIfX0c349yrubw840VOiXJRZLPl52anrB5hGSRyuHPvSVHCrEezf99QVK7Pm5cWm/b1SzGRXpahIoeFbaLFlkhPyxOiuOcC075++XrMWSYGUcURCFFFEQjvXGxs7LNjn9GrNY7qnt/oma5S61Tq9m3abvzhh0K2L9yBwsLCTT/+GGg0lTqw9ivRZo0fOfnXX4UFBXl5ednZ2Vn3zd7D8MeNG/v07KWWK0r9NOX+4nlz5sTGxOTn55d4zszMzPS0tIemmOHZs2fr167jqOu3SiprWLfe9u3bKuz17N+3Ty1XOEogSqmsScNGWzZv5rtT/BN0XiDctXNnm5atHM3ZqmTyti1bffbJJxXzTq9du/b8lCk+Hp6OAqG3u8dz48eX71ICgcvYvDQmyssS6emoBUXsM9r0b2eV11+7IpstLy0uff2rMcNE1jDXskrIRHhYw93iJ4VmbltG/Rg8EAiEqKIIhHcoIyMjMiy8jLL49jklvVqjU6l7d+9x8cIFBu0O/fnnn21btdap1KW2Jg8ymevWrNW3V683ly59+803Fy9YWF7H22++OWb06BZNmjq6jNYqVQP79Z83e87ihSX/7aIFC+bOnr1l0+bk5OSH4CPYvm2b1M/fUNoVf7A5QOrn37Zlq4p8PX+fP9+2ZStHreq1SlWdGjVfnzO3oKCAr4+dUwPh/n37u3bq7OinT6dU1a9dZ+7sORX2Zt9YssTDxdVhGwxPr1EjRsTGxnJWlJec/21NfK2NZbiLtbQtfJYoL2uYW8r7I+4/j9mryORnp6V99WLMcJE13M0a7Vv6k0aLrREeMZGeCdMb5JzeT/0YPCgIhKiiCIR3oqCgYMa0F2oEh5SdBtUyuVlvmDZ1amZmhsBH7K4c2Lffz8vb0fxDsDkgNDAoNDCoVmj16kHBoYGBji4E7+oIDQyqERwSGhgUZDKX8ZmGBATWCA6pHhRc4n8KNJoMGu3k5yb+/fffD/r4Jycnv7FkiUIsubXVh303rFlviAyPqOCX9PKLLwYaTaVu07XPHEaFRwhhNe8dcmogPPnXX0+NjC51f6n94wgJCHzu2fEV9mbfXLrUvZqLo6+2n5f3qBEj4wiE5ef65f8lvzfMMlTkKJtZBoqSFve+/yey1xRN/2527Gi5vb1E6VVkon0tw0QxUT4py4ddT7pMDMQDhECIKopAeFuZmZnvvbuiTo2aOpXa0aYmk06vkEgb1au/ZNHiuPJr2C0Q+/ft83BxLbt7R5DJbNBo9WpNOR4GtdbRHFTx+clSnlelUcsVEl+/Z8eO/fv8+Qd9/C9fvvzi9OlquaLU01unUjeoU3fOa7Mr8iVlZ2WtfO+9QKOp1D2NZr3BpNN36dAxNzeXr4+dUwNhSkrKkkWL5I6bPSgk0t49elbYm719IBw5Mi6OQFhu8jOS0r6cbnlCZHW0enOQKHHWo3npifeZzYpstozNS+MmBluGiSzRPtbSa4r6WgaLYseo0j5/IS+RNIgHDIEQVRSB8LY2b9rUrPEjarmi1PkTe8kNjULZoknT91e8l56ezkl1tw7sP+Dt5u5oeKvmYdYbNArlxAkTKqy4ovMcPXJkYL/+jma/1XJFqxYtKrgXfH5+/g8bNgSZzKX2wAg2B2iVqro1a9k3gsLm5EBos9k2/vCDv5ePo7s2El+/R5s1j4mpoOaQBMIKln89O/271y2DHQfCJ0QJLzXJvfrX/cSzQpvt2rlf4qfWsg4TOaopai8oGjcpJP27OXlJV0iDeOAQCFFFEQjLduzYsbChQ/28vMtIgzqVuvkjTVa+9z5lDO7Ngf0HvN08HsRAOGnChAsXHvhAuGvnzuaPNNWp1I4quDzWpu36b7+p4Fe1b+/eIJO51HZz9kImBo02WxgdQe6EswPh0SNHtEqVo7JDapm8cf0G67/9tmLe7ML58z1d3BwGQk/v6KgRMdYKSqdCkH8tK/272bcJhC83y7WeueeEVmSzXU+6krS4V0yklyXc3UEa9LYMFcWN02dsWpx/jX0ZeCARCFFFEQjL9uL06RIfP0eXWfZU0PyRJiuWL+dcumcEwsq1d8+eVs1bGBzs4VRKZe1bt/nm668r+lXt3l1GILTP2GdnZ/P1sXN2ILx44cJjbds5WmJt0GirBwVPGPdsBezqzMrKmjppUhlVRn08PEdHj0pOSuKsKC/51zLT17/q1EBYcD07Y8ty6zCRJczNwU5FH2u4W+woacZP7+TncicIDyoCIaooAmEZPv344zaPtlRKZY62mSmlskebNlv53vucSPeDQFi5yg6EKqmsfZu231Z8INyzx740tPRAKCMQ/oezA2FiQsLk5yYGGIylrhq1t9tpXL9BBXwily9dGj1qlNjbx9F+Yw8X1zmvvcYpUY7y0xPTvnihrD2ET4gSXm56P4Ew5+TuuGe01nC3UptMWKLFlmGi2NHyzF3v51/PYaUoHlwEQlRRBEJH4uPi+vd9XCWTlxpU7BdAZr1h/rzX2ch0nw7s2+/p6uboWrZqHkatTiWTTxw//iHYQ7hn1+5HmzV3VOX13/2xKyryJWVnZ3+4erWjojL2ezF6tSaLJaP/cnYgzMvL++7bbwMNRo1CWcbv4aYffywsLHTqO/3l558H9R8gF0sc3anx8/RavHAhp0Q5un7lRPL74Y6qjFpHSSyDRQmvtLh+r5v68uL/Sf3oaeuTImuUd6llRS3DXWKixSkrwvNzs0iDeKARCFFFEQgdWfb2O7Wr11BIpKVe/Zh0eqVEOn3aC5cuXuIsuk/btm4ViUSuIpGni6unq1vFHF6ubt7uHjJ/cdlBVC1X+Hl5e7m5/+efu7i5ikQikSgqPPz06dMP+vj/9uuv3Tt3cbSHUK/W1K5eY8YL0yvyJaWmps6dPTvQaDKW9ukEmwP0ak2zR5pcu3aNr4+dswOhzWaLjYlpXL+BRqEs9Twx6fQGjTYyLPzyJef+JL6/4r1mjR/RKlSlnhgGjTbIZF71/kpOiXKUc2xTwistLGEuDgPhAFHi3McK7741vL1/YOb25XHP6CzDq1kc9jl0SVrU83rsOdIgHnQEQlRRBMJSZWVldWzXXq/WlDo9aNYb9GpNh7btjt/fBRbsTp48GTZ02NNPPfXMmDEVc4wbM/bZsc9MmThp8ICBjerVd1Q7UadSd+nQ8Zmnn57w7LPjxowt/ghjnho9auTIj9eseQjanZ3488+I4cO1itKrjJr1Br1KM6j/gIp8SVaLZfiQJwP0xlL7HJh0+iCTecigwfQhvKkCAqHNZhv+5NAyUrq9P+S2rduc+k7Hjn5aq1Q5WrihUSg7tm+/edMmTolyYQ9gGVveiB3pZ4n0tI4qdXefr2WwKHnp40X39Pj5ebkpK8Itg0SWaJ/SF4sOESXMaJj921d8HHgIEAhRRREIS3X40OEAg1ElkztaHBVoNH326ae0QXvQHTl8eMigwaV+0CEBgTJ/8XsVu1SyUly8ePH5KVPUMrmjNpsyf3HTRo0vXaq4yfBjR4+G/tuAvtTfpepBwZMmPEdd35sqJhB+9OGaxvUbKKUyR8s1pX7+06ZMvXjxos1mKyoq/+mcc2fPdu7QUezj62gDocxf/MzTY06fOsUpUS6KbLYCmy1lzWhLP5F1lIMNhJGeMSN8Uj8ad2+BMOf4poRXWliGiEpNg9ZIL+tQUfr6VwsfvsGFIBEIUUURCG+VkJDw/KTJZr2h1BvhZr3BoNY+1qYtBS0eArt37Xq8d59SFwYHGIxiH9+lixdfu/aQ7xFNT09f/s47CrHEUV0frVJVp0bNt998s6CgoAJeT25u7gcrV8nFEkc1LdVyRb3atd9fscLZ29UeIBUTCDMzM3t07ebv7RNgMDpayhtkNC1/Z5mT3ub8efPq1apdaqmhYHOAWW/w9/JeueI9TozyUmSzZR/+PmFmC8tQUalp0DpKYhleLf752lk737+3QJi6ckTMSD9LhEfpgXC4S+LcjtfOHOCzwMOBQIgqikB4q1MnT9YKCXXUcUsjVzSqV//jjz7i5HkI7NyxvW+vXgpx6YHQ39tn4fwFmZmZD/047Nu719/LW19aF/gbN0E02lbNWyQkJFTAi/n1l196dO3maK9aSECg1M//0WbNTp08yQl8U8UEQpvNtmThooZ16zkqLRNgMCrE0n59+u7bu7fc3+OVy5ebP9LE0Ylh30Bo0up279zF+VAuimy2/Jz0pPldrcNEligvh4HwCVHi/C7Xzuy/hw2EeRkJCS82tgwRlb57MNLL+oQoc++H5Hs8NAiEqKIqJRBey8lJTUlJqqp9orb99JPE18/RcjV/b59WLR5NTEx8cD/0pMTE1NRU1rvabLYd2ys6EBYUFCQlJqalpVWp/W8XL15s82hLRzNy9kttg0b7+tx5qSkpTn0lKSnJr7w8U6dSO3oxZr1B7i/u27PXvT1+bm5uUmJienp6xcx2VpgKC4SXL12KGB7m5eZe6iSh/a+GWW8YGRl19erVcnyDycnJUydNNmp1Oke3LXR6nUr9xMCBZ8+cuednSU9PS0pKqoJ7U4sKCwsrvMBmgc2W/u0rsaPlDqcHo8XWKG/LQFHaF1PvoaJMoc2W87+tcc8FWp50tF7UM/Yp6bULhx+mryoEjkCIKqoiA+E/f/+9dctPK997b+7s2a+8PGPGtBfeeeutH77fUKXu9GdkpL/5xhtSP39H1SwMak1UeMQD90EXFBQcO3r0u2/Xv7FkyfRp02a9PPP1uXNXf/DB3t17EuLjBXv+V1ggzL127eBvB7/+6qtFCxZOf37arJkzF7z++sdrPvr5wIG0tLRKH4e0tLSXps8IMBgdtXmwrwasX7vux2s+uu60WwnZ2dlLlyxp0rCRUiJ1ND2olskb1Km7ZOGiu/xeZxzYf+Dzdevmz5s3fdq0V2e+smjBgi/Wff77wYMPR6nSCguENpvt3WXLzXqDo7K09qYgIYGB06ZOLa9MmJOT89GHa0IDgx0t3LBv7TaoNV9+8cX163d3fhYUFJw6deqrL79a/s6ymS++NGPaC/PmzH1vxYqtW36qyH2zZbv+z+H0dVNyzx8syM+rmFhYUJCfuWtl3HizNcKj1HIvNyq+hLnGTTBn//zlPTxFYVFh+vdzYp/RWsJcS3twb2uUT/Ib/fOSr9qAhwWBEFVUhQXCEydOTBw/oVZodV8PT283D19PL18PT1eRSK/WjIyMOrB/fxXZ9XHq1Kkxo0erZPJSLzu0SlWLJk3fXbb8wfqUMzMz13/zzaD+A1RSmZtI5Ovh6evh5e3m7uvp1aJJ08ULF124cEGY53/FBMKkxMSPPvywZ9duEl8/d5GL/eT3dvPw9/Z5rE3bFcuXx8TEVO44FBUV7dq5s2ZoqNrBmX9jak4sad+6zdpPP3XG9FpmZuaqlSsb1qsv8fENcTD7FGAwSnz8IsPCr1y5cuePbLl6dcWy5R3atvPx8PRwcfX19PLx8PR285D5+ffs2u3jNR8lJyc/6GdyRQbCE3+eGDVipNxfbNYbHJ0tKplcq1DOmvlKuWTC79evf6xNW7Vc4ajukUmnN6i17Vq1vttVzQUFBdu2bo0MDzdqdR7VXHzcPX09vbxc3Xw9verUqDlt6vOnqkZ9mqx9qy91EyXN65S5a2XulRP52amFzijaY/81sNnys1Iyd62KG6O2hrlaor0dpUFrlLf1SVHq2sl5SVfu4YkK8q8nLeoZE+1viSxlPaolwj0m2j9z96qC/OsP+tcTuIlAiCqqYgLhP//806p5C5VMbi8Xbl9rFGAw2m8zKyXSOjVq7tm9uyoMyO6duzq2a69Vll6CXyWVde/S5actWx6gjzgrK2v1qlWBBpNarrCv5gr5d/zt3dX1as2QQYNTU1MFeP47NRDaL9iSk5OXLl6sU6k1CqVBo7Vf0doLYBi1OpVUZtTqxo0Ze/165V/09O/7uEGtKaMxo1lvUIglTRs1Xvb22+X71GlpaW++8YZ9csnRWsRgc4BOqQoymlYsX37n42+1WKZPm6aSyjQKpVGrC9Abbv74GDRapVQWYDS9NmvWg34mV2QgtNlsO3fsCDKZy5gktE/ZKcSSWTNfuXz58j0/UUFBwcdrPmrfuo1CInWUP4PNAWq5ok7Nmu+vWHG3tyrWrV3bomlTf28f+2/jzb9NJp1eq1QppbJ+vfseO3q00j/f7INfX+olsg4VWYeI4p8LTF09OufEjgKbrfDfVn73z/44hTZb7pUTKSsiYoZXs4a5Wkf5WBz1HowWW8PdY6P9c07svLcXkJ+bFfeM1hrmUvoGwnC3mFHS7FN7C/59bZVzFNH7EOWJQIgqqgIC4aWLF58YOMig1ujVmmBzQIm/6PbtSTqVukvHTn+f/7vSB+SHDRvq16nraGGSSiYf1H/Anj17rly5/M8///x9vgKdO3fmzJnz587dbXL7fv13waYAjUJ566asYHNAgN6glitqhVZ/a+kbAtxVWAEzhO+vWGHS6jQKZYnLWft3waw3KKWyRxo0XL1yVaWPxqHff2/Xuo3YQQ3Jm1MxepW6dvUaI6NGHD92rFyed++evQMe7xcSEKhXaRxNAQWbA0w6vb+X93PPjr+rCe2XZ7yoV6m1CmVAaeNv0unlYkm71m2+/PyLB/uXvGIDYUZGxjtvva1VKLWOa//YM6FJp+/Zrfvna9fdw7OcO3t2/Lhn69epa28J6+iJjFqdRq7o06Pn3a6+/uOP4y2aNlNIpPYf/FtPD71aIxdL5s2ZW+lzyNmH1lseF1kiPCwRHtZIr5gRvrFPKxOmN0j7ZEL2kQ3516/Zbkkyt1Xi/1xos10783Pqh2PiJ1ePifS0hrtbon0dpUFrtNgS7hYT7p72+eT89HvZdFBks11PjY0d4eOwH324e8zTytx/DucmW3Jjz+XGnMm1VuBx9eR16+mCzGTiIMoXgRBVVAUEwk0bN2rkyrLvJRs0WpVM/unHH1d6Y7EPVq4S+/g6uvgwaXX1atfp2qlzj67dunXq3LVTpwo6Onbq0rHTY23aDuzX/9tvvrnzt3P16tUpkyb7enqVcTll0um1ClWDOnWvXL5iExhnB8Jz585FhIX5eniWsbjOfjnbtlXrqtDI5M0lS+vXrqNwvIXPfsLoVOogk7lju/bPT56y4fvv76366KVLlz779NNnxoxp1aKFWWdwNC1/80lVMnnrFi137dx5509x/Pjxnt26+3l5BxiMjh7coNGqZfIBfR9/sH/JKzYQ2my2mJiYyLBwo1ZXasXRm7/t9lUhjzRsFD5s2EcffvjXiRO3feT8/Px9e/e+POPFbp27hAYG6VUak1bn6CkCDEZvN4+O7dr/fODuOhNkZmbOfOkls96gkSvKeP0KsaRVi0e//qqSu6JnH1pv6SeyRnnf2LkX4WEZXs0a5hI7Rh3/fJ3EV1unLB+asXFBzpGN16/8lZ+RdCcbMIpstoK83OsxZ7KPbEhfPzN5Se+EGY1in1ZYw9ws4e6WaLHVURocJbFEeFjDXBOmN7gee+7eIlOhzZZzam9MpGepGwitoySWaB/rCN/42W0TXm2dMLN5wsvNKvR4oV7S3I7Z+z4uLKDZKcoTgRBVlLMDYVJS0sL58/28vB21OLu5FE3m5z929NOV3lD43WXLXEWiMmZIjFqdUiqT+flLff0q7JD4+kl8fD1d3QLvssfX5k2benTtphBLyrjUtu+NlPj6bfxho9CWxzg7EH6+bl3bVq1L7XP4nyIcEqlBo/31118rfUDi4+JnTHvBoNaWHc/skycSX79Ao6lzh47Pjn1myaJFX37+xe5du44eOXLhwoX09PScf13LycnOzk5KTDx58uTxY8f27tm79tNP57z22uhRo9q1am0/9xwV9f3/zKxQ1qtV+8vPv7ireez333uvScNGjhqp3zwkPr71a9d5oPtYVHwgtNlsx48d69enr0Gj1as0ZQyvfRpWLpa0ebRl+LDhr82atXrVB9u2bjt65MhfJ078deLEyb/++uP48X17927a+ON777770owZj/fuExIQJPX11ynVZZwYAQaj1M+/SaPGq1fd9QR7XFxcq+aPGv9dxe3wxWt1Mn/xjBemV+7neyMQjvL5T0GXaB9LuJtlqMgyUGR9UhQ33pTwauvkNwekrB6Z9sUL6RvmZfwwP+vXL7IPrc8++E32wa+zD36d/fs32YfWZ+1anfHjovT1r6V+8kzy24MTZrWKHaO2PCGyDBFZwt0sjnPg/6fBYaKEaXWzf/vqnrf+FxYVZR/fHBPlbQl3c/hE0T6WoSLLEJHliYo+rj4uio3yzvh+LoEQ5YtAiCrK2YHwzOnTz459RiGWlhGxbtxIVii7dOy0e1clt5BasmiRp6tb2ZePlXVolaqGdeutXvXBnb+dTz7+uEnDxlrHt/CLX3AveP31hARhVRx1diBctGBh/dp1Su2jXfzQqdSBRtO7y5dXhZ6Hfxz/IzIsXKtU6crMhDfn9pVSmb1MTq3Q6t06dQ4bOvSF559/Y+nSFe++u2L5uyuWL3/v3XeXL1s2b87cMaNHRw4P69G1W2hgkEc1F7G3j1omL/tW0c2Ts0Gduq/PnXu3/QCmTZlaMyTUUaOC4p3u69as9enHHz+4vSgqJRDabLYN333fuUNHhURq3xFQ9l0/jVwh8fVzr+aiUSgfa9M27MmhT42MHj1q1NNPPRUVHtG7e49HmzaT+Pp5urrJxZI7eUCVTB5kNL+xZElGRsbdvvKrV6/qVOqyA6f98HJ1GxkVVbkr6m8NhLfW5LwRDp8QWQaKLP1Flr4iy+OiuPGm+Ck14ieF/P8xpUbsKIl1oMjyuMgyQGQZLLIMFVnC3S3RPrePgtFiexqMn1Yvc/u7hfexfbEgLzdz/ycxUd6WCPeyn7RSDsvwarHP6DI2Ly1kDyHKFYEQVZSzA+FfJ048FR2tlMru5MqyUb36G77/vhJHIyEhYdKE53w9PKtmINSr1I3q1b+rQLh61QcN6tS97QWxWW/QqzXPPTu+6pRZrxjODoRzXptdK7TGbcffqNEGGk2zZs5McXKXvzt04s8/+/TsFWQy61XqMha7Fv/+2mu0aJUqtUyukEhlfuIbM9u+fhJfP6mfv8xfrJRI1XKFTqm6Wdyl7Me0/yxolarG9RvOnvXqPVyXTXh2fGhgkKNeGsUDee3qNRYvXFgFG9Dd6S95JQVCm822ZvWHLZo2M6i1jrZe3/rNMml19jJLKplcJZWrZHK1XKFVqsreK/if802nt09iPz95yuV7+tW6cvmK1M//tjdrQgICxd4+Q5944sI//1Ti51t8yegdH77WKG9rpKc1wsMa7n7jiHC3RnhYI72sUT7WUb53EZCixTfSYLh7/OTqmTvfv89iNvmpsWmfTYqJ9LREelbFQBjmEjtOTyBEuSMQoopydiA88eefT0VHy8WS284QmnR6DxfXd5ctq8TRSEpKmjJxop+n10MTCNesXF2/dl3N7WYI7SsAH2vb7vAhYbUArpBAWP22F532iqO9uvW4dLGqBPKMjIypkybbl7Pe4TV68cNexvPmEaA32Hfx3Txu+2j2pogyf3HrFi0/+ejje3sXzz07PiQg6PaBXKsLMBiHDBp8DxNNVeWX/LaBsGH5B8KbK8wP/X5oUL/+aplcp1KX/VNf6tlS4rjtvzXp9PZtrm++8UZ6evq9vfjLly7J/MQax0Vxbh5ysaRDu/bfr19fiZ9v9u/fXO4rskZ6Wm83iVey9IuD464exxItto7ysYa7WYdXS5zVMud/PxXedwXO/LT4tM+nxUR6EQghKARCVFH/HwjNZQTCF+758bOyspa99bafl3cZVQFuXn+7ikTvvPVWJY5GclLSlEmTHqZAuH/fvoH9+8v8xXcyQ9u2ZatDvx8S1Pnv7EC44fvvu3TsJPcX3zYQmnT6bp06V51AaLPZ0lLT1n72WYe27fy9fcpoAeeMw6DRysUShVgyddLkI0eO3PNKzk8/+aRls+a33cNp0ukDjaaB/fpXhSW79/hLXhmBsMSfkhemTVPLFWIfX+Ptfu3v+QgwGLVKldjHt2Wz5p+vXZuVde+fV2JiYs+u3Uw6/W0XLSsk0sfatqvcujLZv35xuZfIMti+x8+nYtORryXczTJEFPuUNG3txFzLyXJpGZyfHp/2+bSYKG8CIQSFQIgq6uyZM+PGjFXJ5KXe1tWrNTVDQqc/f19VRvft3WvU6sqoMnrzL727qNo7b71diaORnJQ0ZeIk36oaCHUqdcO7DIRpaWlzXpvt5+lVdtEOeyBs17qNEGcIe/aSiyWlB0Kv+w2EcfFxY59+2tfDs+yLTvuSy+5dul6+dLlKjU9OTs6vv/zy6sxXmjRs7OPhKRdL7nBZ4D0c9llBrVLl6+mlVSgHDxi46v3376eFnc1mu3Tp0sB+/fy8vG9TOESnDzSaBg8YmPUgB0JxJS0Zveny5cvvLlvWvUtXvVoj9fM3luupYj83/Ly8awSFjI4etfWnn65fv69NfdeuXVv29tuBRpPqdjWHlBJph3btv6vUGcK8pCsZG+YlL+0XO0parPrL7Xf93XsiihZbor0tw10s/UWxoyTJb/bP2v1RXuLl8opH/wbCqjpDOJxACKcgEKKKOnP69JinnpL5+etVGvu90puHvWt5SEDg81Om3M9TxMbEjhv7jFapUsnkZVyW2WcI367UGcKkxMSJ4yd4urga1CVHo9IPe3XTujVr3W09vR3bt7d+tKXU17+MIg32QNimZatDv/8uqPN/+9atPbt1E3v7GDTaEgOuV6m93NwXzp9/n8sI161d+0iDhvbZG0fjb58h7Nqp86WLF6vgKKWlpn704YcjI6PatW5j1htk/mKVTH5r67Z7zoH2PhZKiVQultSpUbNH124zXnjhlwM/l8uLX/7msjo1akp8fE2O74nYA+GAx/s9uDOEZ06f9vHwVMvkRq3u1p8OsY9vgzp1K6bB+q4dOydOeK5l8xYmnV4hlmpL64B65+fGzcJFSom0Vmj1x3v3Xrp4ydkzZ8vlpZ47d65rx04qqdy+cNTRi1RIpI+1bfv1l19W4ud7o2X834cyNi5MfnNAwoxGsWPU1qEiy1CRJczFEulZLsnwxoLSSE/LcBfLkyLr8GpxzxqSXu+c/v2c3AtH7nPTYAn5aXFp6yZaw1wtw6tZRnpVrSPSy/KkKHaMOmPTksKiQhtQfgiEqKJOnzo1bswY+3qwQKMpyGS+eQQaTTqVumZo9fucIbTZbOfOnu3dvUdoYJBOpbZPFd7aId2sN/h4eK5Y/m4ljkZiQsLkiRPt8wmBRnPx0aj0w/5x3O2SUZvNlp2d/clHH9evU8eo1emUKqNGV+r469WaLh06VcwlY9WxbevWPj17KcSSAIOxxGib9Qaxj+/C+QvueZOSXUpy8rJ33qkREmIf/1JjiT0Q9uvd58rlqjVDWFx+fv7369ePGjGyVfMW9WrVtn+d7YVA7CEkQG8sYxtY8U1iZr3BpNXbC8bYd53VDAltVL9B58c6zHp5Znn1u7ezWq2vvvKKPVfolKpSw4lRqwsymcOGDntwA+HpU6ekfv56tabEz7j9ZFZIpE0aNjp65EjFvJjMzMzP162LCAtv9kiTmiGhJp1eq1TpVWqjVmevUVTqefKf00OnN2i0OqXafhurTo2aHdq2e3H6jHJvDbL20087P9bBoNHqVGpHt2zkYknnDh02//hjVfkmZiRnH/ou7dPnEl9pETchIHaMOiZabI3wsIS5WCLcLZFelmhv++Th/+8YdJT97L0ror0tkZ6WCHdLmKs1wiNmpH/sGFX8pJCkuY+lfzMzL+mKM+bI8lNj09ZOiY3yjonwiBnpV9UO6/BqceMMmZuXFhY+qJWHUTURCFFFXbp4cemSJX169hrYr//gAQP/c/Qf0K933+FPDl254r37f6KLFy68NuvVpo0f0SiUJp2+RJ/oYHOAUaurXaPmXXVdL3epKSnL33mna6fOpYxGZR+D+g94vHefkRGRmzZuvNv3VVhY+NOWLYMGDKgeFGyv42cf8xJVRsc+NbpyK+lVvEOHDr3w/LRe3XsM6j+gxIAP7Ne/e+cu6z5be//LCHNycr75+uue3brbg/etdTuNWl2g0TRtytTkpKSqP2gpKcnffP31+GfGNahTV6/W2EOdQaM1aLTFp6eKF5X5z4SVRmfQaPVqjb3OZM2Q0L49e82dPfvA/v1Oe8EpH65e3aFd+0CjqdTx16s0tUKrz5sz5/r16w/omXzx4sWe3br369N38C1n8qD+A3p17zFqxMgzZ05X8Kv6668TSxcv6dqxk70oqE6lNqg1Ro3u5nli/vc8sc9k2v/z5umhU6oa1q03asTI9d9847yvxs4dO0ZERNarVdv+7LdmQomv3+ABAyu9R+5NRf8ehTbbtTMHMn5clPzWoPiJQTHDq8WEu1nD3awRHtYIT2uEpzXK2xrpZY3yskR5W4sdlkgva6TXvzVIb5QhjQlzjQl3ixtvTl7SN2Pz0tyrJwuLPVe5K8hMytq+PPn1zklzOyTN71LljtltU97sn/Prl4WF9CFEeSIQourKyclJS03NzMzMysz6j8zMjIwMe4PpcnmivLy8jIyMLZs39+vdJ9BoKhEIdSr1Iw0b/bBhQ+WOxrVr11JSUkoZjcqVmZWZmZmenp6enn7PlfGzs7Li4uMXLVhYMyS0RCC038Kf/NzEywJrO1FQUJCVlZWWllbyE8/MyszMTElJKa+EUFRUlJmRYbFYXpj6fGhgUImLToNGG2AwvvrKKynJyQ/EuBUWFubk5KSmpJw7d+6HDRsWL1w4ddKk/n36du7QsXH9BlqF0qOai6erm9e/h6eLq7e7R7DJ3Kp5i26du4QNHTb71Vc/+/TTX3/91WKxZGVlXc+97uwXnJ6WfuHChZGRUSG3zE1plapaodXfeuONBzcQ2my25KTkjIyMrMySv1yZmZlpaWnpaemV8qry8vKyMjMvXbq0dcuWhfPnPzUyulf3Hs0aP2LS6jxd3G6eJB7VXHw9vRrVq9+mZasnBw1+5eWX16z+cN/evXFxcddycoqcuY+rqKgoNzc3Pj5+w/ff1wwJNahL7sP08/Ie+sSQKvjbaM+EBQV5+bnZeRmJuVdPZh36Lu3rl1PWjEpa3CtheoOE6Q1iIz2tA0SWfiJL/3+PfqLLfUUx4e4JLz2SMKNR0oJuKe9HpX/7atavX+RePJKXnpCfm1VYkO+kHPifF593LT8rNT8nPf9aZpU7stMKstMK86+zgxDli0AI3PD3+fOP9+5T4iZ9sDlALVcM6t//4G+/MUROtfazz+xdQIqPv73397vLlt/n8kjc1rw5c24t+qpVqoKMpq+++KJym1/fm/yCgqSkJIvFcurUqT///PPwocP79u7dvm3bzu07du7YsXPHjp3bd+zYvn3n9h2//Pzz8WPHTvx54vy5c/HxceV1p+muPD3qKYVYUmL8VTJ5gzp1f9qypYgCEk5TVFSUmJh44Z8LJ//66+iRIwf279+xfbv9xNi5fceObdt37thx+NDh48eOnT1zNjY2Nisrq4Jf4Z//+1/N0NBbm8S4V3MZN2bsAzDCNlthYWF+Wlxe4uXr1tO5F47kXjyac3JXzh9bso9vzj6+5d9jc/axH3P+2pV76XjuhaPXLafyEi7mZyQW5uc5OwQCIBACN/x84ECt0OoldvLYK1XMenmmxWJhiJxq3py5Xm7uJS6IdUqV3F/8+8GDjI+zjRsz1tvd45YyhrJAg/HChQuMj1MVFhb269PHz8u75JpAH98mjRqlpKQwRIKVl5e37rO19traJZZzq2Xy1+fOY4gA3D8CIXDDRx9+6OXqVrwKv73MoMTX74vPP2d8nOrP//0vMixM6utfopaDTqWuHhQcHx/PEDnVr7/80qdnT5mfuMT4q+WKZo0fYXrK2bZt3dqmZcsSbQnNeoNCIu3ZrTvjI2RxsbEjIyID9IYSHWI0CmXbVq2//vIrhgjA/SMQAjabzfb3+fOTJ06U+Ytv7XkQoDf+cfwPhsipPl7zUesWj2oUyhIb2ILNAU+Peuo++yvgtt56481HGjQsMf56lbpWaPXnJ09hfJxt5osv1a1ZS6dSl1iv26BOXaaABO7UyZO1q9coUVQm2Bwg9fMfM/rp06erSkUZAA80AiFgs9ls67/5tmWz5iU2adhruw0b8uTlKlxz/+EwYdw4jVxRYnpWLVfUCq2+9rPP8vMpp+ZcgwcM1CiUxbtxBpsDFBJp80eaVHo5pYdeTk7OY23a6lTqEuMv9fPv2qnT7t27GSLBKiws/HzdOqVEWrwrjH3pipebe+V2xwXwMCEQAra8vLxpU6YqJdJb1+QYNNrv168nkDjVzwcOdO7QQf7fihrB5gC5v+TRps2YHnS2rVu2NG3UWCWVFx//AINR7OP7eO8+rBd1qvz8/K+//LJGcIhWqSqxe9nP02vs008zREJ29MiRQf0HqOWKEr+NerWmaaPGe7hZAKCcEAgB2w8bNnRo117q519iA49epWnZrHl8XBxD5FTjxowJCQi8db1c9aDgKRMnMT5OlZOTM2zIkACD0aDRlrgbUqdGzQXzXmeInMpqsfTp0dPe6a74Fb9Grmxcv8Ga1asZIiFbsXy5vYtmidrLSqls1syZsTExDBGAckEghNAVFhaOGjHSvjq0+AWxWq6oGRI657XZDJFTnfjzRKN69VVS2a07ZHp07Xb40CGGyKn279sXZDKXmJ4KMBglPr5hQ4edOnmSIXKq775db1+JUHxBoFlvkPj6TZww4ZLA2m+iuKNHjg59Yoi/t8+t04MhAYE/HzjAEAEoLwRCCN2PGzc2adhILpYUT4MBBqPMX9zpsQ6XLl1kiJwnOSlp/NhnAo2m4hXVg80BBrVGp1RNf34aQ+RU//z9d1RYuEGjLTE9pVdrDGrNsrffZoic6sihw4P69dcolAEGY4nxDzAY13/zDUMkZC9On2HWG0p0m9CrNWa9YUREJK1ZAZQjAiEELSEhoWvHTgaN1lRsejDYHKBVKKsHhbw0fQZD5FRbf/pJp1LrVOri0yP2NP547967du5kiJzh5rbATz76WC6W3Do9JRdLwocNP3rkSPH/M8p3/AsKCha8Pl/s42v8b70Qo1anlimeHTv2/PnzjJVgbf3ppw7t2t26s1ohltStWevA/v0MEYByRCCEcKWlpc2bPcc+PVX8j65Jp5f6+T8VHR3DDg1n+v3g772691DLFCWKK+rVmkCjefUHHzBETrVl0+YObdspb1msq1draoSE/rRlC0PkVB+tWdOiaTOlRFqiloxerWlYr/6xo0cZIsFKiI8f1H+ASacvsbNXLVfUqV7zlZdeLiwsZJQAlCMCIQSqqKho/bff1qtVu0QatE9PtW/Tlmr7TvX3+fOTJjynU6lNOn3x8TdotH6eXtOmTrVYLIyS8/xx/HhUeLhGoSwx/lqFUu4vWfD666mpqYyS8/x84MDjvfuo5f+5GxISEKiUSA0a7bvLluddv84oCVN2dvasmTPthbVK3KmU+4sH9R9w8cIFRglA+SIQQqD27N7dq3sPmZ9/iekpnUodZDQve/vtzMxMRslJcnNzF7z+eu3QGiXKqRs1Wo1C2a516+PHjjFKzpOWljZl4qTQwKBbO9HrVOqe3bpdofGmM8XGxo6IiAw0mko0PtUqlEatduiQIWlpaYySMOXm5q77bG3t6jXs+0iL36n09/Zp07LVl59/zigBKHcEQgjR3+fPj4iI8HRxvbWWhlGrGzdmLBfEzlNYWLhq5crmTZpIff2LX/GYdHqNQtmoXv3v1q8vKChgoJwkOzv7jaVL69asVaKQklGrU8sVbVu13rFjB6PkPImJiXNeey3IZFbJ5P8ppKTRqmTyPj17HvztN0ZJsDZt/LFV8xZquaL436YAg1EtVxi1uneXLWOIADgDgRCCc/HChUH9B0j9/O1/Yk06vb3nhFapMmi0Pbt1v3jxIqPkJHl5eZ+vW1e3Zi2xt499vaj9MGi0SqmsXq3a82bPYZScJyMjY9XKlWa9Qernr1dr/n/81RqFRNqs8SPvvbuCUXKe+Pj4pUuWqKQyhURqL+5qP/RqjUIibd+6zbrP1jJKgvXt19+0b9NW4uOnU6qL/23SKJRquWL+vHnx8fGMEgBnIBBCQAoKCv73xx8tmzV3EYlEIpGHi6uXm7v9cBdV8/f26dOzF42/nCchIWHZO+8opTKRSOQiEnm6ut0Yf1e3aiJRjeCQRfMXUCzBea5evTr71Vd9Pb1EIpGbSORVbPxdRKJGdeuvXkUhHyf6+/z558ZPcBdVE4lE7qJqN8ff09XNTSRq1bzF9+u/Y5QEa/k7y+rWrHXjt9HF7ebfJleRSOrnv3DBAtIgAOchEEJY0tLStm/b9uPGjbt27tyze/fe3Xv27t6zZ/eeXTt37dm9++RftOF2ory8vLNnzmz+cdO2rVv37N69Z/eef8d/947t23//7SBXPE517dq1v06c2PjDDzu2b7958t8c/yOHD1NIxqkyMzOPHT32w4YNO3fsKDH+O7fv+OP48ezsbEZJsM6cObNz+46fNm/ZvWtXsd/GPfazJTk5mSEC4DwEQgAAAAAQKAIhAAAAAAgUgRAAAAAABIpACAAAAAACRSAEAAAAAIEiEAIAAACAQBEIAQAAAECgCIQAAAAAIFAEQgAAAAAQKAIhAAAAAAgUgRAAAAAABIpACAAAAAACRSAEAAAAAIEiEAIAAACAQBEIAQAAAECgCIQAAAAAIFAEQgAAAAAQKAIhAAAAAAgUgRAAAAAABIpACAAAAAACRSAEAAAAAIEiEAIAAACAQBEIAQAAAECgCIQAAAAAIFAEQgAAAAAQKAIhAAAAAAgUgRAAAAAABIpACAAAAAACRSAEAAAAAIEiEAIAAACAQBEIAQAAAECgCIQAAAAAIFAEQgAAAAAQKAIhAAAAAAgUgRAAAAAABIpACAAAAAACRSAEAAAAAIEiEAIAAACAQBEIAQAAAECgCIQAAAAAIFAEQgAAAAAQKAIhAAAAAAgUgRAAAAAABIpACAAAAAACRSAEAAAAAIEiEAIAAACAQBEIAQAAAECgCIQAAAAAIFAEQgAAAAAQKAIhAAAAAAgUgRAAAAAABIpACAAAAAACRSAEAAAAAIEiEAIAAACAQBEIAQAAAECgCIQAAAAAIFAEQgAAAAAQKAIhAAAAAAgUgRAAAAAABIpACAAAAAACRSAEAAAAAIEiEAIAAACAQBEIAQAAAECgCIQAAAAAIFAEQgAAAAAQKAIhAAAAAAgUgRAAAAAABIpACAAAAAACRSAEAAAAAIEiEAIAAACAQBEIAQAAAECgCIQAAAAAIFAEQgAAAAAQKAIhAAAAAAgUgRAAAAAABIpACAAAAAACRSAEAAAAAIEiEAIAAACAQBEIAQAAAECgCIQAAAAAIFAEQgAAAAAQKAIhAAAAAAgUgRAAAAAABIpACAAAAAACRSAEAAAAAIEiEAIAAACAQBEIAQAAAECgCIQAAAAAIFAEQgAAAAAQKAIhAAAAAAgUgRAAAAAABIpACAAAAAACRSAEAAAAAIEiEAIAAACAQBEIAQAAAECgCIQAAAAAIFAEQgAAAAAQKAIhAAAAAAgUgRAAAAAABIpACAAAAAACRSAEAAAAAIEiEAIAAACAQBEIAQAAAECgCIQAAAAAIFAEQgAAAAAQKAIhAAAAAAgUgRAAAAAABIpACAAAAAACRSAEAAAAAIEiEAIAAACAQBEIAQAAAECgCIQAAAAAIFAEQgAAAAAQKAIhAAAAAAgUgRAAAAAABIpACAAAAAACRSAEAAAAAIEiEAIAAACAQBEIAQAAAECgCIQAAAAAIFAEQgAAAAAQKAIhAAAAAAgUgRAAAAAABIpACAAAAAACRSAEAAAAAIEiEAIAAACAQBEIAQAAAECgCIQAAAAAIFAEQgAAAAAQKAIhAAAAAAgUgRAAAAAABIpACAAAAAACRSAEAAAAAIEiEAIAAACAQBEIAQAAAECgCIQAAAAAIFAEQgAAAAAQKAIhAAAAAAgUgRAAAAAABIpACAAAAAACRSAEAAAAAIEiEAIAAACAQBEIAQAAAECgCIQAAAAAIFAEQgAAAAAQKAIhAAAAAAgUgRAAAAAABIpACAAAAAACRSAEAAAAAIEiEAIAAACAQBEIAQAAAECgCIQAAAAAIFAEQgAAAAAQKAIhAAAAAAgUgRAAAAAABIpACAAAAAACRSAEAAAAAIEiEAIAAACAQBEIAQAAAECgCIQAAAAAIFAEQgAAAAAQKAIhAAAAAAgUgRAAAAAABIpACAAAAAACRSAEAAAAAIEiEAIAAACAQBEIAQAAAECgCIQAAAAAIFAEQgAAAAAQKAIhAAAAAAgUgRAAAAAABIpACAAAAAACRSAEAAAAAIEiEAIAAACAQBEIAQAAAECgCIQAAAAAIFAEQgAAAAAQKAIhAAAAAAgUgRAAAAAABIpACAAAAAACRSAEAAAAAIEiEAIAAACAQBEIAQAAAECgCIQAAAAAIFAEQgAAAAAQKAIhAAAAAAgUgRAAAAAABIpACAAAAAACRSAEAAAAAIEiEAIAAACAQBEIAQAAAECgCIQAAAAAIFAEQgAAAAAQKAIhAAAAAAgUgRAAAAAABIpACAAAAAACRSAEAAAAAIEiEAIAAACAQBEIAQAAAECgCIQAAAAAIFAEQgAAAAAQKAIhAAAAAAgUgRAAAAAABIpACAAAAAACRSAEAAAAAIEiEAIAAACAQBEIAQAAAECgCIQAAAAAIFAEQgAAAAAQKAIhAAAAAAgUgRAAAAAABIpACAAAAAACRSAEAAAAAIEiEAIAAACAQBEIAQAAAECgCIQAAAAAIFAEQgAAAAAQKAIhAAAAAAgUgRAAAAAABIpACAAAAAACRSAEAAAAAIEiEAIAAACAQBEIAQAAAECgCIQAAAAAIFAEQgAAAAAQKAIhAAAAAAgUgRAAAAAABIpACAAAAAAC9X8V5u+arQ2PWwAAABl0RVh0U29mdHdhcmUAQWRvYmUgSW1hZ2VSZWFkeXHJZTwAAAAASUVORK5CYII=;" vertex="1" parent="2">
                    <mxGeometry x="480" y="110" width="312.23" height="175.63" as="geometry"/>
                </mxCell>
            </root>
        </mxGraphModel>
    </diagram>
</mxfile>